<?xml version="1.0" encoding="UTF-8" standalone="no"?>
<!DOCTYPE svg PUBLIC "-//W3C//DTD SVG 1.1//EN"
 "http://www.w3.org/Graphics/SVG/1.1/DTD/svg11.dtd">
<!-- Generated by graphviz version 2.42.4 (0)
 -->
<!-- Title: PriceGhostProductLifecycle Pages: 1 -->
<svg width="1818pt" height="5144pt"
 viewBox="0.00 0.00 1818.00 5144.00" xmlns="http://www.w3.org/2000/svg" xmlns:xlink="http://www.w3.org/1999/xlink">
<g id="graph0" class="graph" transform="scale(1 1) rotate(0) translate(4 5140)">
<title>PriceGhostProductLifecycle</title>
<polygon fill="#0f172a" stroke="transparent" points="-4,4 -4,-5140 1814,-5140 1814,4 -4,4"/>
<text text-anchor="middle" x="905" y="-5114.4" font-family="Segoe UI, Arial, sans-serif" font-size="22.00" fill="#f8fafc">PriceGhost End&#45;to&#45;End Product Lifecycle &amp; Scraper Engine (v1.8.2+)</text>
<g id="clust1" class="cluster">
<title>cluster_init</title>
<path fill="#1e3a5f" stroke="#1e3a5f" stroke-dasharray="5,2" d="M493,-4617C493,-4617 879,-4617 879,-4617 885,-4617 891,-4623 891,-4629 891,-4629 891,-5084 891,-5084 891,-5090 885,-5096 879,-5096 879,-5096 493,-5096 493,-5096 487,-5096 481,-5090 481,-5084 481,-5084 481,-4629 481,-4629 481,-4623 487,-4617 493,-4617"/>
<text text-anchor="middle" x="686" y="-5074.4" font-family="Segoe UI, Arial, sans-serif" font-size="22.00" fill="#60a5fa">PHASE 0 — SESSION INITIALISATION</text>
</g>
<g id="clust2" class="cluster">
<title>cluster_acquisition</title>
<path fill="#1e3a8a" stroke="#1e3a8a" stroke-dasharray="5,2" d="M344,-3789C344,-3789 802,-3789 802,-3789 808,-3789 814,-3795 814,-3801 814,-3801 814,-4559 814,-4559 814,-4565 808,-4571 802,-4571 802,-4571 344,-4571 344,-4571 338,-4571 332,-4565 332,-4559 332,-4559 332,-3801 332,-3801 332,-3795 338,-3789 344,-3789"/>
<text text-anchor="middle" x="573" y="-4549.4" font-family="Segoe UI, Arial, sans-serif" font-size="22.00" fill="#818cf8">PHASE 1 — HTML ACQUISITION</text>
</g>
<g id="clust3" class="cluster">
<title>cluster_extraction</title>
<path fill="#064e3b" stroke="#064e3b" stroke-dasharray="5,2" d="M834,-2928C834,-2928 1196,-2928 1196,-2928 1202,-2928 1208,-2934 1208,-2940 1208,-2940 1208,-4151 1208,-4151 1208,-4157 1202,-4163 1196,-4163 1196,-4163 834,-4163 834,-4163 828,-4163 822,-4157 822,-4151 822,-4151 822,-2940 822,-2940 822,-2934 828,-2928 834,-2928"/>
<text text-anchor="middle" x="1015" y="-4141.4" font-family="Segoe UI, Arial, sans-serif" font-size="22.00" fill="#34d399">PHASE 2 — DATA EXTRACTION</text>
</g>
<g id="clust4" class="cluster">
<title>cluster_price_cascade</title>
<path fill="#047857" stroke="#047857" d="M842,-3051C842,-3051 1188,-3051 1188,-3051 1194,-3051 1200,-3057 1200,-3063 1200,-3063 1200,-3875 1200,-3875 1200,-3881 1194,-3887 1188,-3887 1188,-3887 842,-3887 842,-3887 836,-3887 830,-3881 830,-3875 830,-3875 830,-3063 830,-3063 830,-3057 836,-3051 842,-3051"/>
<text text-anchor="middle" x="1015" y="-3865.4" font-family="Segoe UI, Arial, sans-serif" font-size="22.00" fill="#6ee7b7">Price Candidate Cascade (7 Layers)</text>
</g>
<g id="clust5" class="cluster">
<title>cluster_automapping</title>
<path fill="#581c87" stroke="#581c87" stroke-dasharray="5,2" d="M1180,-2118C1180,-2118 1751,-2118 1751,-2118 1757,-2118 1763,-2124 1763,-2130 1763,-2130 1763,-2879 1763,-2879 1763,-2885 1757,-2891 1751,-2891 1751,-2891 1180,-2891 1180,-2891 1174,-2891 1168,-2885 1168,-2879 1168,-2879 1168,-2130 1168,-2130 1168,-2124 1174,-2118 1180,-2118"/>
<text text-anchor="middle" x="1465.5" y="-2869.4" font-family="Segoe UI, Arial, sans-serif" font-size="22.00" fill="#c084fc">PHASE 4 — AI AUTO&#45;MAPPING (if no config / shell config)</text>
</g>
<g id="clust6" class="cluster">
<title>cluster_consensus</title>
<path fill="#7c2d12" stroke="#7c2d12" stroke-dasharray="5,2" d="M476,-882C476,-882 1148,-882 1148,-882 1154,-882 1160,-888 1160,-894 1160,-894 1160,-2603 1160,-2603 1160,-2609 1154,-2615 1148,-2615 1148,-2615 476,-2615 476,-2615 470,-2615 464,-2609 464,-2603 464,-2603 464,-894 464,-894 464,-888 470,-882 476,-882"/>
<text text-anchor="middle" x="812" y="-2593.4" font-family="Segoe UI, Arial, sans-serif" font-size="22.00" fill="#fb923c">PHASE 5 — PRICE CONSENSUS &amp; OOS GUARDRAILS</text>
</g>
<g id="clust7" class="cluster">
<title>cluster_stageA</title>
<path fill="#92400e" stroke="#92400e" d="M732,-1986C732,-1986 1035,-1986 1035,-1986 1041,-1986 1047,-1992 1047,-1998 1047,-1998 1047,-2468 1047,-2468 1047,-2474 1041,-2480 1035,-2480 1035,-2480 732,-2480 732,-2480 726,-2480 720,-2474 720,-2468 720,-2468 720,-1998 720,-1998 720,-1992 726,-1986 732,-1986"/>
<text text-anchor="middle" x="883.5" y="-2458.4" font-family="Segoe UI, Arial, sans-serif" font-size="22.00" fill="#fbbf24">Stage A — Method Short&#45;Circuit</text>
</g>
<g id="clust8" class="cluster">
<title>cluster_stageB</title>
<path fill="#92400e" stroke="#92400e" d="M676,-1697C676,-1697 1081,-1697 1081,-1697 1087,-1697 1093,-1703 1093,-1709 1093,-1709 1093,-1928 1093,-1928 1093,-1934 1087,-1940 1081,-1940 1081,-1940 676,-1940 676,-1940 670,-1940 664,-1934 664,-1928 664,-1928 664,-1709 664,-1709 664,-1703 670,-1697 676,-1697"/>
<text text-anchor="middle" x="878.5" y="-1918.4" font-family="Segoe UI, Arial, sans-serif" font-size="22.00" fill="#fbbf24">Stage B — Weighted Arbitration (Fallback)</text>
</g>
<g id="clust9" class="cluster">
<title>cluster_oos</title>
<path fill="#7c2d12" stroke="#7c2d12" d="M491,-890C491,-890 882,-890 882,-890 888,-890 894,-896 894,-902 894,-902 894,-1516 894,-1516 894,-1522 888,-1528 882,-1528 882,-1528 491,-1528 491,-1528 485,-1528 479,-1522 479,-1516 479,-1516 479,-902 479,-902 479,-896 485,-890 491,-890"/>
<text text-anchor="middle" x="686.5" y="-1506.4" font-family="Segoe UI, Arial, sans-serif" font-size="22.00" fill="#fca5a5">OOS Guardrails (if product out_of_stock)</text>
</g>
<g id="clust10" class="cluster">
<title>cluster_verify</title>
<path fill="#4c1d95" stroke="#4c1d95" stroke-dasharray="5,2" d="M145,-890C145,-890 444,-890 444,-890 450,-890 456,-896 456,-902 456,-902 456,-1240 456,-1240 456,-1246 450,-1252 444,-1252 444,-1252 145,-1252 145,-1252 139,-1252 133,-1246 133,-1240 133,-1240 133,-902 133,-902 133,-896 139,-890 145,-890"/>
<text text-anchor="middle" x="294.5" y="-1230.4" font-family="Segoe UI, Arial, sans-serif" font-size="22.00" fill="#a78bfa">PHASE 6 — AI VERIFICATION</text>
</g>
<g id="clust11" class="cluster">
<title>cluster_voting</title>
<path fill="#701a75" stroke="#701a75" stroke-dasharray="5,2" d="M621,-377C621,-377 996,-377 996,-377 1002,-377 1008,-383 1008,-389 1008,-389 1008,-832 1008,-832 1008,-838 1002,-844 996,-844 996,-844 621,-844 621,-844 615,-844 609,-838 609,-832 609,-832 609,-389 609,-389 609,-383 615,-377 621,-377"/>
<text text-anchor="middle" x="808.5" y="-822.4" font-family="Segoe UI, Arial, sans-serif" font-size="22.00" fill="#f472b6">VOTING MODAL (needsReview = true)</text>
</g>
<g id="clust12" class="cluster">
<title>cluster_persist</title>
<path fill="#0f533a" stroke="#0f533a" stroke-dasharray="5,2" d="M20,-8C20,-8 535,-8 535,-8 541,-8 547,-14 547,-20 547,-20 547,-832 547,-832 547,-838 541,-844 535,-844 535,-844 20,-844 20,-844 14,-844 8,-838 8,-832 8,-832 8,-20 8,-20 8,-14 14,-8 20,-8"/>
<text text-anchor="middle" x="277.5" y="-822.4" font-family="Segoe UI, Arial, sans-serif" font-size="22.00" fill="#34d399">PERSISTENCE &amp; AUTO&#45;CONFIG LEARNING LOOP</text>
</g>
<g id="clust13" class="cluster">
<title>cluster_scheduler</title>
<path fill="#0f533a" stroke="#0f533a" stroke-dasharray="5,2" d="M1228,-4065C1228,-4065 1735,-4065 1735,-4065 1741,-4065 1747,-4071 1747,-4077 1747,-4077 1747,-4703 1747,-4703 1747,-4709 1741,-4715 1735,-4715 1735,-4715 1228,-4715 1228,-4715 1222,-4715 1216,-4709 1216,-4703 1216,-4703 1216,-4077 1216,-4077 1216,-4071 1222,-4065 1228,-4065"/>
<text text-anchor="middle" x="1481.5" y="-4693.4" font-family="Segoe UI, Arial, sans-serif" font-size="22.00" fill="#4ade80">SCHEDULER REFRESH LOOP</text>
</g>
<!-- Start_Product -->
<g id="node1" class="node">
<title>Start_Product</title>
<path fill="#2563eb" stroke="#334155" stroke-width="1.4" d="M778.5,-5056C778.5,-5056 593.5,-5056 593.5,-5056 587.5,-5056 581.5,-5050 581.5,-5044 581.5,-5044 581.5,-5018 581.5,-5018 581.5,-5012 587.5,-5006 593.5,-5006 593.5,-5006 778.5,-5006 778.5,-5006 784.5,-5006 790.5,-5012 790.5,-5018 790.5,-5018 790.5,-5044 790.5,-5044 790.5,-5050 784.5,-5056 778.5,-5056"/>
<text text-anchor="middle" x="686" y="-5034" font-family="Segoe UI, Arial, sans-serif" font-size="10.00" fill="#ffffff">POST /api/products</text>
<text text-anchor="middle" x="686" y="-5023" font-family="Segoe UI, Arial, sans-serif" font-size="10.00" fill="#ffffff">(Add Product URL)</text>
</g>
<!-- Url_Clean -->
<g id="node2" class="node">
<title>Url_Clean</title>
<path fill="#1e293b" stroke="#334155" stroke-width="1.4" d="M778.5,-4933C778.5,-4933 593.5,-4933 593.5,-4933 587.5,-4933 581.5,-4927 581.5,-4921 581.5,-4921 581.5,-4895 581.5,-4895 581.5,-4889 587.5,-4883 593.5,-4883 593.5,-4883 778.5,-4883 778.5,-4883 784.5,-4883 790.5,-4889 790.5,-4895 790.5,-4895 790.5,-4921 790.5,-4921 790.5,-4927 784.5,-4933 778.5,-4933"/>
<text text-anchor="middle" x="686" y="-4911" font-family="Segoe UI, Arial, sans-serif" font-size="10.00" fill="#cbd5e1">cleanUrl() / getUrlLookup()</text>
<text text-anchor="middle" x="686" y="-4900" font-family="Segoe UI, Arial, sans-serif" font-size="10.00" fill="#cbd5e1">(Strip UTM, normalize trailing slash)</text>
</g>
<!-- Start_Product&#45;&gt;Url_Clean -->
<g id="edge1" class="edge">
<title>Start_Product&#45;&gt;Url_Clean</title>
<path fill="none" stroke="#475569" stroke-width="1.1" d="M686,-5005.8C686,-4987.42 686,-4961.94 686,-4941.74"/>
<polygon fill="#475569" stroke="#475569" stroke-width="1.1" points="688.98,-4941.65 686,-4933.15 683.03,-4941.65 688.98,-4941.65"/>
</g>
<!-- Load_Config -->
<g id="node3" class="node">
<title>Load_Config</title>
<path fill="#1e293b" stroke="#334155" stroke-width="1.4" d="M778.5,-4810C778.5,-4810 593.5,-4810 593.5,-4810 587.5,-4810 581.5,-4804 581.5,-4798 581.5,-4798 581.5,-4772 581.5,-4772 581.5,-4766 587.5,-4760 593.5,-4760 593.5,-4760 778.5,-4760 778.5,-4760 784.5,-4760 790.5,-4766 790.5,-4772 790.5,-4772 790.5,-4798 790.5,-4798 790.5,-4804 784.5,-4810 778.5,-4810"/>
<text text-anchor="middle" x="686" y="-4788" font-family="Segoe UI, Arial, sans-serif" font-size="10.00" fill="#cbd5e1">Load RetailerConfig + AI Settings</text>
<text text-anchor="middle" x="686" y="-4777" font-family="Segoe UI, Arial, sans-serif" font-size="10.00" fill="#cbd5e1">(configCache / settingsCache)</text>
</g>
<!-- Url_Clean&#45;&gt;Load_Config -->
<g id="edge2" class="edge">
<title>Url_Clean&#45;&gt;Load_Config</title>
<path fill="none" stroke="#475569" stroke-width="1.1" d="M686,-4882.8C686,-4864.42 686,-4838.94 686,-4818.74"/>
<polygon fill="#475569" stroke="#475569" stroke-width="1.1" points="688.98,-4818.65 686,-4810.15 683.03,-4818.65 688.98,-4818.65"/>
</g>
<!-- Currency_Init -->
<g id="node4" class="node">
<title>Currency_Init</title>
<path fill="#1e293b" stroke="#334155" stroke-width="1.4" d="M790.5,-4675C790.5,-4675 581.5,-4675 581.5,-4675 575.5,-4675 569.5,-4669 569.5,-4663 569.5,-4663 569.5,-4637 569.5,-4637 569.5,-4631 575.5,-4625 581.5,-4625 581.5,-4625 790.5,-4625 790.5,-4625 796.5,-4625 802.5,-4631 802.5,-4637 802.5,-4637 802.5,-4663 802.5,-4663 802.5,-4669 796.5,-4675 790.5,-4675"/>
<text text-anchor="middle" x="686" y="-4653" font-family="Segoe UI, Arial, sans-serif" font-size="10.00" fill="#cbd5e1">Resolve Currency &amp; Locale Hints</text>
<text text-anchor="middle" x="686" y="-4642" font-family="Segoe UI, Arial, sans-serif" font-size="10.00" fill="#cbd5e1">(currencyHelper: Site Hint → URL → HTML lang)</text>
</g>
<!-- Load_Config&#45;&gt;Currency_Init -->
<g id="edge3" class="edge">
<title>Load_Config&#45;&gt;Currency_Init</title>
<path fill="none" stroke="#475569" stroke-width="1.1" d="M686,-4759.91C686,-4738.67 686,-4707.52 686,-4683.97"/>
<polygon fill="#475569" stroke="#475569" stroke-width="1.1" points="688.98,-4683.86 686,-4675.36 683.03,-4683.86 688.98,-4683.86"/>
</g>
<!-- Axios_Fetch -->
<g id="node5" class="node">
<title>Axios_Fetch</title>
<path fill="#4f46e5" stroke="#334155" stroke-width="1.4" d="M778.5,-4531C778.5,-4531 593.5,-4531 593.5,-4531 587.5,-4531 581.5,-4525 581.5,-4519 581.5,-4519 581.5,-4493 581.5,-4493 581.5,-4487 587.5,-4481 593.5,-4481 593.5,-4481 778.5,-4481 778.5,-4481 784.5,-4481 790.5,-4487 790.5,-4493 790.5,-4493 790.5,-4519 790.5,-4519 790.5,-4525 784.5,-4531 778.5,-4531"/>
<text text-anchor="middle" x="686" y="-4509" font-family="Segoe UI, Arial, sans-serif" font-size="10.00" fill="#ffffff">Standard HTTP Fetch</text>
<text text-anchor="middle" x="686" y="-4498" font-family="Segoe UI, Arial, sans-serif" font-size="10.00" fill="#ffffff">(axios + optional proxy + circuit&#45;breaker)</text>
</g>
<!-- Currency_Init&#45;&gt;Axios_Fetch -->
<g id="edge4" class="edge">
<title>Currency_Init&#45;&gt;Axios_Fetch</title>
<path fill="none" stroke="#475569" stroke-width="1.1" d="M686,-4624.91C686,-4601.55 686,-4565.93 686,-4539.96"/>
<polygon fill="#475569" stroke="#475569" stroke-width="1.1" points="688.98,-4539.71 686,-4531.21 683.03,-4539.71 688.98,-4539.71"/>
</g>
<!-- Bot_Check -->
<g id="node6" class="node">
<title>Bot_Check</title>
<path fill="#d97706" stroke="#334155" stroke-width="1.4" d="M630.29,-4396.37C630.29,-4396.37 542.47,-4376.63 542.47,-4376.63 536.62,-4375.32 536.62,-4372.68 542.47,-4371.37 542.47,-4371.37 630.29,-4351.63 630.29,-4351.63 636.15,-4350.32 647.85,-4350.32 653.71,-4351.63 653.71,-4351.63 741.53,-4371.37 741.53,-4371.37 747.38,-4372.68 747.38,-4375.32 741.53,-4376.63 741.53,-4376.63 653.71,-4396.37 653.71,-4396.37 647.85,-4397.68 636.15,-4397.68 630.29,-4396.37"/>
<text text-anchor="middle" x="642" y="-4377" font-family="Segoe UI, Arial, sans-serif" font-size="10.00" fill="#ffffff">Bot Challenge Detected?</text>
<text text-anchor="middle" x="642" y="-4366" font-family="Segoe UI, Arial, sans-serif" font-size="10.00" fill="#ffffff">(Cloudflare / Imperva)</text>
</g>
<!-- Axios_Fetch&#45;&gt;Bot_Check -->
<g id="edge5" class="edge">
<title>Axios_Fetch&#45;&gt;Bot_Check</title>
<path fill="none" stroke="#475569" stroke-width="1.1" d="M677.83,-4480.85C670.66,-4459.66 660.19,-4428.74 652.42,-4405.78"/>
<polygon fill="#475569" stroke="#475569" stroke-width="1.1" points="655.23,-4404.81 649.69,-4397.71 649.59,-4406.72 655.23,-4404.81"/>
</g>
<!-- Soft404_Check -->
<g id="node7" class="node">
<title>Soft404_Check</title>
<path fill="#d97706" stroke="#334155" stroke-width="1.4" d="M630.14,-4265.19C630.14,-4265.19 489.56,-4243.81 489.56,-4243.81 483.63,-4242.9 483.63,-4241.1 489.56,-4240.19 489.56,-4240.19 630.14,-4218.81 630.14,-4218.81 636.07,-4217.9 647.93,-4217.9 653.86,-4218.81 653.86,-4218.81 794.44,-4240.19 794.44,-4240.19 800.37,-4241.1 800.37,-4242.9 794.44,-4243.81 794.44,-4243.81 653.86,-4265.19 653.86,-4265.19 647.93,-4266.1 636.07,-4266.1 630.14,-4265.19"/>
<text text-anchor="middle" x="642" y="-4245" font-family="Segoe UI, Arial, sans-serif" font-size="10.00" fill="#ffffff">Soft&#45;404 Detected?</text>
<text text-anchor="middle" x="642" y="-4234" font-family="Segoe UI, Arial, sans-serif" font-size="10.00" fill="#ffffff">(redirect / no PDP wrapper / robots.txt)</text>
</g>
<!-- Bot_Check&#45;&gt;Soft404_Check -->
<g id="edge7" class="edge">
<title>Bot_Check&#45;&gt;Soft404_Check</title>
<path fill="none" stroke="#475569" stroke-width="1.1" d="M642,-4348.85C642,-4328.24 642,-4298.41 642,-4275.66"/>
<polygon fill="#475569" stroke="#475569" stroke-width="1.1" points="644.98,-4275.52 642,-4267.02 639.03,-4275.52 644.98,-4275.52"/>
<text text-anchor="middle" x="648.5" y="-4305.8" font-family="Segoe UI, Arial, sans-serif" font-size="9.00" fill="#94a3b8">No</text>
</g>
<!-- Remote_Browser -->
<g id="node8" class="node">
<title>Remote_Browser</title>
<path fill="#4f46e5" stroke="#334155" stroke-width="1.4" d="M626.5,-3991C626.5,-3991 441.5,-3991 441.5,-3991 435.5,-3991 429.5,-3985 429.5,-3979 429.5,-3979 429.5,-3953 429.5,-3953 429.5,-3947 435.5,-3941 441.5,-3941 441.5,-3941 626.5,-3941 626.5,-3941 632.5,-3941 638.5,-3947 638.5,-3953 638.5,-3953 638.5,-3979 638.5,-3979 638.5,-3985 632.5,-3991 626.5,-3991"/>
<text text-anchor="middle" x="534" y="-3969" font-family="Segoe UI, Arial, sans-serif" font-size="10.00" fill="#ffffff">Stealth Puppeteer Fallback</text>
<text text-anchor="middle" x="534" y="-3958" font-family="Segoe UI, Arial, sans-serif" font-size="10.00" fill="#ffffff">(&#39;ruski&#39; container — use_remote_scraper)</text>
</g>
<!-- Bot_Check&#45;&gt;Remote_Browser -->
<g id="edge6" class="edge">
<title>Bot_Check&#45;&gt;Remote_Browser</title>
<path fill="none" stroke="#475569" stroke-width="1.1" d="M611.38,-4355.73C558.1,-4325.7 454,-4267 454,-4267 454,-4267 454,-4217 454,-4217 454,-4217 484,-4065 484,-4065 484,-4065 503.08,-4027.61 517.66,-3999.02"/>
<polygon fill="#475569" stroke="#475569" stroke-width="1.1" points="520.43,-4000.15 521.64,-3991.22 515.13,-3997.44 520.43,-4000.15"/>
<text text-anchor="middle" x="471" y="-4173.8" font-family="Segoe UI, Arial, sans-serif" font-size="9.00" fill="#94a3b8">Yes</text>
</g>
<!-- Maintenance -->
<g id="node11" class="node">
<title>Maintenance</title>
<path fill="#dc2626" stroke="#334155" stroke-width="1.4" d="M704.5,-4123C704.5,-4123 519.5,-4123 519.5,-4123 513.5,-4123 507.5,-4117 507.5,-4111 507.5,-4111 507.5,-4085 507.5,-4085 507.5,-4079 513.5,-4073 519.5,-4073 519.5,-4073 704.5,-4073 704.5,-4073 710.5,-4073 716.5,-4079 716.5,-4085 716.5,-4085 716.5,-4111 716.5,-4111 716.5,-4117 710.5,-4123 704.5,-4123"/>
<text text-anchor="middle" x="612" y="-4101" font-family="Segoe UI, Arial, sans-serif" font-size="10.00" fill="#ffffff">Flag is_blocked = true</text>
<text text-anchor="middle" x="612" y="-4090" font-family="Segoe UI, Arial, sans-serif" font-size="10.00" fill="#ffffff">(Retailer maintenance / bot&#45;blocked)</text>
</g>
<!-- Soft404_Check&#45;&gt;Maintenance -->
<g id="edge8" class="edge">
<title>Soft404_Check&#45;&gt;Maintenance</title>
<path fill="none" stroke="#475569" stroke-width="1.1" d="M637.05,-4217.55C632.11,-4194.2 624.49,-4158.14 618.95,-4131.92"/>
<polygon fill="#475569" stroke="#475569" stroke-width="1.1" points="621.83,-4131.14 617.16,-4123.44 616.01,-4132.37 621.83,-4131.14"/>
<text text-anchor="middle" x="636" y="-4173.8" font-family="Segoe UI, Arial, sans-serif" font-size="9.00" fill="#94a3b8">Yes</text>
</g>
<!-- DOM_Denoise -->
<g id="node12" class="node">
<title>DOM_Denoise</title>
<path fill="#1e293b" stroke="#334155" stroke-width="1.4" d="M1027.5,-4123C1027.5,-4123 842.5,-4123 842.5,-4123 836.5,-4123 830.5,-4117 830.5,-4111 830.5,-4111 830.5,-4085 830.5,-4085 830.5,-4079 836.5,-4073 842.5,-4073 842.5,-4073 1027.5,-4073 1027.5,-4073 1033.5,-4073 1039.5,-4079 1039.5,-4085 1039.5,-4085 1039.5,-4111 1039.5,-4111 1039.5,-4117 1033.5,-4123 1027.5,-4123"/>
<text text-anchor="middle" x="935" y="-4101" font-family="Segoe UI, Arial, sans-serif" font-size="10.00" fill="#cbd5e1">denoiseDomForExtraction()</text>
<text text-anchor="middle" x="935" y="-4090" font-family="Segoe UI, Arial, sans-serif" font-size="10.00" fill="#cbd5e1">(Strip script/style/nav/footer/header/aside)</text>
</g>
<!-- Soft404_Check&#45;&gt;DOM_Denoise -->
<g id="edge9" class="edge">
<title>Soft404_Check&#45;&gt;DOM_Denoise</title>
<path fill="none" stroke="#475569" stroke-width="1.1" d="M683.53,-4223.3C737.52,-4200.29 825,-4163 825,-4163 825,-4163 856.88,-4144.45 886.32,-4127.32"/>
<polygon fill="#475569" stroke="#475569" stroke-width="1.1" points="887.88,-4129.86 893.73,-4123.01 884.88,-4124.72 887.88,-4129.86"/>
<text text-anchor="middle" x="837.5" y="-4173.8" font-family="Segoe UI, Arial, sans-serif" font-size="9.00" fill="#94a3b8">No — HTML OK</text>
</g>
<!-- Remote_Fail -->
<g id="node9" class="node">
<title>Remote_Fail</title>
<path fill="#dc2626" stroke="#334155" stroke-width="1.4" d="M537.5,-3847C537.5,-3847 352.5,-3847 352.5,-3847 346.5,-3847 340.5,-3841 340.5,-3835 340.5,-3835 340.5,-3809 340.5,-3809 340.5,-3803 346.5,-3797 352.5,-3797 352.5,-3797 537.5,-3797 537.5,-3797 543.5,-3797 549.5,-3803 549.5,-3809 549.5,-3809 549.5,-3835 549.5,-3835 549.5,-3841 543.5,-3847 537.5,-3847"/>
<text text-anchor="middle" x="445" y="-3825" font-family="Segoe UI, Arial, sans-serif" font-size="10.00" fill="#ffffff">Remote Fail → Increment Failures</text>
<text text-anchor="middle" x="445" y="-3814" font-family="Segoe UI, Arial, sans-serif" font-size="10.00" fill="#ffffff">(Backoff &amp; retry next scheduler cycle)</text>
</g>
<!-- Remote_Browser&#45;&gt;Remote_Fail -->
<g id="edge11" class="edge">
<title>Remote_Browser&#45;&gt;Remote_Fail</title>
<path fill="none" stroke="#475569" stroke-width="1.1" d="M518.9,-3940.91C504.01,-3917.15 481.16,-3880.69 464.81,-3854.6"/>
<polygon fill="#475569" stroke="#475569" stroke-width="1.1" points="467.21,-3852.83 460.17,-3847.21 462.17,-3855.99 467.21,-3852.83"/>
<text text-anchor="middle" x="503" y="-3897.8" font-family="Segoe UI, Arial, sans-serif" font-size="9.00" fill="#94a3b8">Fail</text>
</g>
<!-- Set_Stealth -->
<g id="node10" class="node">
<title>Set_Stealth</title>
<path fill="#1e293b" stroke="#334155" stroke-width="1.4" d="M793.5,-3847C793.5,-3847 608.5,-3847 608.5,-3847 602.5,-3847 596.5,-3841 596.5,-3835 596.5,-3835 596.5,-3809 596.5,-3809 596.5,-3803 602.5,-3797 608.5,-3797 608.5,-3797 793.5,-3797 793.5,-3797 799.5,-3797 805.5,-3803 805.5,-3809 805.5,-3809 805.5,-3835 805.5,-3835 805.5,-3841 799.5,-3847 793.5,-3847"/>
<text text-anchor="middle" x="701" y="-3825" font-family="Segoe UI, Arial, sans-serif" font-size="10.00" fill="#cbd5e1">Set use_remote_scraper = true</text>
<text text-anchor="middle" x="701" y="-3814" font-family="Segoe UI, Arial, sans-serif" font-size="10.00" fill="#cbd5e1">(Saved to retailer_configs)</text>
</g>
<!-- Remote_Browser&#45;&gt;Set_Stealth -->
<g id="edge10" class="edge">
<title>Remote_Browser&#45;&gt;Set_Stealth</title>
<path fill="none" stroke="#475569" stroke-width="1.1" d="M562.33,-3940.91C590.88,-3916.64 635,-3879.12 665.79,-3852.94"/>
<polygon fill="#475569" stroke="#475569" stroke-width="1.1" points="667.98,-3854.98 672.53,-3847.21 664.13,-3850.45 667.98,-3854.98"/>
<text text-anchor="middle" x="629.5" y="-3897.8" font-family="Segoe UI, Arial, sans-serif" font-size="9.00" fill="#94a3b8">Success</text>
</g>
<!-- Set_Stealth&#45;&gt;DOM_Denoise -->
<g id="edge12" class="edge">
<title>Set_Stealth&#45;&gt;DOM_Denoise</title>
<path fill="none" stroke="#475569" stroke-width="1.1" d="M721.72,-3847.26C764.26,-3897.08 861.42,-4010.84 908.48,-4065.95"/>
<polygon fill="#475569" stroke="#475569" stroke-width="1.1" points="906.45,-4068.15 914.23,-4072.68 910.98,-4064.29 906.45,-4068.15"/>
</g>
<!-- Maintenance&#45;&gt;Remote_Browser -->
<g id="edge13" class="edge">
<title>Maintenance&#45;&gt;Remote_Browser</title>
<path fill="none" stroke="#475569" stroke-width="1.1" d="M597.51,-4072.85C584.92,-4051.87 566.61,-4021.35 552.88,-3998.46"/>
<polygon fill="#475569" stroke="#475569" stroke-width="1.1" points="555.34,-3996.78 548.41,-3991.02 550.23,-3999.84 555.34,-3996.78"/>
<text text-anchor="middle" x="611" y="-4029.8" font-family="Segoe UI, Arial, sans-serif" font-size="9.00" fill="#94a3b8">Retry via browser</text>
</g>
<!-- Meta_Extract -->
<g id="node13" class="node">
<title>Meta_Extract</title>
<path fill="#1e293b" stroke="#334155" stroke-width="1.4" d="M1070.5,-3991C1070.5,-3991 885.5,-3991 885.5,-3991 879.5,-3991 873.5,-3985 873.5,-3979 873.5,-3979 873.5,-3953 873.5,-3953 873.5,-3947 879.5,-3941 885.5,-3941 885.5,-3941 1070.5,-3941 1070.5,-3941 1076.5,-3941 1082.5,-3947 1082.5,-3953 1082.5,-3953 1082.5,-3979 1082.5,-3979 1082.5,-3985 1076.5,-3991 1070.5,-3991"/>
<text text-anchor="middle" x="978" y="-3969" font-family="Segoe UI, Arial, sans-serif" font-size="10.00" fill="#cbd5e1">Metadata Extraction</text>
<text text-anchor="middle" x="978" y="-3958" font-family="Segoe UI, Arial, sans-serif" font-size="10.00" fill="#cbd5e1">(name, image, stock via 4&#45;layer cascade)</text>
</g>
<!-- DOM_Denoise&#45;&gt;Meta_Extract -->
<g id="edge14" class="edge">
<title>DOM_Denoise&#45;&gt;Meta_Extract</title>
<path fill="none" stroke="#475569" stroke-width="1.1" d="M942.99,-4072.85C949.84,-4052.15 959.76,-4022.14 967.3,-3999.36"/>
<polygon fill="#475569" stroke="#475569" stroke-width="1.1" points="970.21,-4000.02 970.06,-3991.02 964.56,-3998.15 970.21,-4000.02"/>
</g>
<!-- L1_JSONLD -->
<g id="node14" class="node">
<title>L1_JSONLD</title>
<path fill="#4f46e5" stroke="#334155" stroke-width="1.4" d="M1096.5,-3847C1096.5,-3847 911.5,-3847 911.5,-3847 905.5,-3847 899.5,-3841 899.5,-3835 899.5,-3835 899.5,-3809 899.5,-3809 899.5,-3803 905.5,-3797 911.5,-3797 911.5,-3797 1096.5,-3797 1096.5,-3797 1102.5,-3797 1108.5,-3803 1108.5,-3809 1108.5,-3809 1108.5,-3835 1108.5,-3835 1108.5,-3841 1102.5,-3847 1096.5,-3847"/>
<text text-anchor="middle" x="1004" y="-3825" font-family="Segoe UI, Arial, sans-serif" font-size="10.00" fill="#ffffff">L1: JSON&#45;LD Parser</text>
<text text-anchor="middle" x="1004" y="-3814" font-family="Segoe UI, Arial, sans-serif" font-size="10.00" fill="#ffffff">(Schema.org — conf 0.95, weight 2.0)</text>
</g>
<!-- Meta_Extract&#45;&gt;L1_JSONLD -->
<g id="edge15" class="edge">
<title>Meta_Extract&#45;&gt;L1_JSONLD</title>
<path fill="none" stroke="#475569" stroke-width="1.1" d="M982.41,-3940.91C986.71,-3917.45 993.27,-3881.62 998.03,-3855.62"/>
<polygon fill="#475569" stroke="#475569" stroke-width="1.1" points="1000.96,-3856.1 999.57,-3847.21 995.11,-3855.03 1000.96,-3856.1"/>
</g>
<!-- L2_Deal -->
<g id="node15" class="node">
<title>L2_Deal</title>
<path fill="#4f46e5" stroke="#334155" stroke-width="1.4" d="M1108.5,-3724C1108.5,-3724 923.5,-3724 923.5,-3724 917.5,-3724 911.5,-3718 911.5,-3712 911.5,-3712 911.5,-3686 911.5,-3686 911.5,-3680 917.5,-3674 923.5,-3674 923.5,-3674 1108.5,-3674 1108.5,-3674 1114.5,-3674 1120.5,-3680 1120.5,-3686 1120.5,-3686 1120.5,-3712 1120.5,-3712 1120.5,-3718 1114.5,-3724 1108.5,-3724"/>
<text text-anchor="middle" x="1016" y="-3702" font-family="Segoe UI, Arial, sans-serif" font-size="10.00" fill="#ffffff">L2: Deal Price Selectors</text>
<text text-anchor="middle" x="1016" y="-3691" font-family="Segoe UI, Arial, sans-serif" font-size="10.00" fill="#ffffff">(deal_price_selectors — conf 0.95)</text>
</g>
<!-- L1_JSONLD&#45;&gt;L2_Deal -->
<g id="edge16" class="edge">
<title>L1_JSONLD&#45;&gt;L2_Deal</title>
<path fill="none" stroke="#475569" stroke-width="1.1" d="M1006.4,-3796.8C1008.22,-3778.42 1010.75,-3752.94 1012.75,-3732.74"/>
<polygon fill="#475569" stroke="#475569" stroke-width="1.1" points="1015.73,-3732.91 1013.6,-3724.15 1009.81,-3732.32 1015.73,-3732.91"/>
</g>
<!-- L3_Member -->
<g id="node16" class="node">
<title>L3_Member</title>
<path fill="#4f46e5" stroke="#334155" stroke-width="1.4" d="M1114.5,-3601C1114.5,-3601 929.5,-3601 929.5,-3601 923.5,-3601 917.5,-3595 917.5,-3589 917.5,-3589 917.5,-3563 917.5,-3563 917.5,-3557 923.5,-3551 929.5,-3551 929.5,-3551 1114.5,-3551 1114.5,-3551 1120.5,-3551 1126.5,-3557 1126.5,-3563 1126.5,-3563 1126.5,-3589 1126.5,-3589 1126.5,-3595 1120.5,-3601 1114.5,-3601"/>
<text text-anchor="middle" x="1022" y="-3579" font-family="Segoe UI, Arial, sans-serif" font-size="10.00" fill="#ffffff">L3: Member Price Selectors</text>
<text text-anchor="middle" x="1022" y="-3568" font-family="Segoe UI, Arial, sans-serif" font-size="10.00" fill="#ffffff">(member_price_selectors — conf 0.95)</text>
</g>
<!-- L2_Deal&#45;&gt;L3_Member -->
<g id="edge17" class="edge">
<title>L2_Deal&#45;&gt;L3_Member</title>
<path fill="none" stroke="#475569" stroke-width="1.1" d="M1017.2,-3673.8C1018.11,-3655.42 1019.37,-3629.94 1020.38,-3609.74"/>
<polygon fill="#475569" stroke="#475569" stroke-width="1.1" points="1023.35,-3609.79 1020.8,-3601.15 1017.41,-3609.5 1023.35,-3609.79"/>
</g>
<!-- L4_PreOrder -->
<g id="node17" class="node">
<title>L4_PreOrder</title>
<path fill="#4f46e5" stroke="#334155" stroke-width="1.4" d="M1117.5,-3478C1117.5,-3478 932.5,-3478 932.5,-3478 926.5,-3478 920.5,-3472 920.5,-3466 920.5,-3466 920.5,-3440 920.5,-3440 920.5,-3434 926.5,-3428 932.5,-3428 932.5,-3428 1117.5,-3428 1117.5,-3428 1123.5,-3428 1129.5,-3434 1129.5,-3440 1129.5,-3440 1129.5,-3466 1129.5,-3466 1129.5,-3472 1123.5,-3478 1117.5,-3478"/>
<text text-anchor="middle" x="1025" y="-3456" font-family="Segoe UI, Arial, sans-serif" font-size="10.00" fill="#ffffff">L4: Pre&#45;order Selectors</text>
<text text-anchor="middle" x="1025" y="-3445" font-family="Segoe UI, Arial, sans-serif" font-size="10.00" fill="#ffffff">(pre_order_price_selectors — conf 0.95)</text>
</g>
<!-- L3_Member&#45;&gt;L4_PreOrder -->
<g id="edge18" class="edge">
<title>L3_Member&#45;&gt;L4_PreOrder</title>
<path fill="none" stroke="#475569" stroke-width="1.1" d="M1022.6,-3550.8C1023.06,-3532.42 1023.69,-3506.94 1024.19,-3486.74"/>
<polygon fill="#475569" stroke="#475569" stroke-width="1.1" points="1027.16,-3486.72 1024.4,-3478.15 1021.22,-3486.58 1027.16,-3486.72"/>
</g>
<!-- L5_Original -->
<g id="node18" class="node">
<title>L5_Original</title>
<path fill="#4f46e5" stroke="#334155" stroke-width="1.4" d="M1118.5,-3355C1118.5,-3355 933.5,-3355 933.5,-3355 927.5,-3355 921.5,-3349 921.5,-3343 921.5,-3343 921.5,-3317 921.5,-3317 921.5,-3311 927.5,-3305 933.5,-3305 933.5,-3305 1118.5,-3305 1118.5,-3305 1124.5,-3305 1130.5,-3311 1130.5,-3317 1130.5,-3317 1130.5,-3343 1130.5,-3343 1130.5,-3349 1124.5,-3355 1118.5,-3355"/>
<text text-anchor="middle" x="1026" y="-3333" font-family="Segoe UI, Arial, sans-serif" font-size="10.00" fill="#ffffff">L5: Original / RRP Selectors</text>
<text text-anchor="middle" x="1026" y="-3322" font-family="Segoe UI, Arial, sans-serif" font-size="10.00" fill="#ffffff">(original_price_selectors — conf 0.95)</text>
</g>
<!-- L4_PreOrder&#45;&gt;L5_Original -->
<g id="edge19" class="edge">
<title>L4_PreOrder&#45;&gt;L5_Original</title>
<path fill="none" stroke="#475569" stroke-width="1.1" d="M1025.2,-3427.8C1025.35,-3409.42 1025.56,-3383.94 1025.73,-3363.74"/>
<polygon fill="#475569" stroke="#475569" stroke-width="1.1" points="1028.7,-3363.68 1025.8,-3355.15 1022.76,-3363.63 1028.7,-3363.68"/>
</g>
<!-- L6_Custom -->
<g id="node19" class="node">
<title>L6_Custom</title>
<path fill="#4f46e5" stroke="#334155" stroke-width="1.4" d="M1119.5,-3232C1119.5,-3232 934.5,-3232 934.5,-3232 928.5,-3232 922.5,-3226 922.5,-3220 922.5,-3220 922.5,-3194 922.5,-3194 922.5,-3188 928.5,-3182 934.5,-3182 934.5,-3182 1119.5,-3182 1119.5,-3182 1125.5,-3182 1131.5,-3188 1131.5,-3194 1131.5,-3194 1131.5,-3220 1131.5,-3220 1131.5,-3226 1125.5,-3232 1119.5,-3232"/>
<text text-anchor="middle" x="1027" y="-3210" font-family="Segoe UI, Arial, sans-serif" font-size="10.00" fill="#ffffff">L6: Custom CSS Selectors</text>
<text text-anchor="middle" x="1027" y="-3199" font-family="Segoe UI, Arial, sans-serif" font-size="10.00" fill="#ffffff">(price_selectors — conf 0.90, weight 1.5)</text>
</g>
<!-- L5_Original&#45;&gt;L6_Custom -->
<g id="edge20" class="edge">
<title>L5_Original&#45;&gt;L6_Custom</title>
<path fill="none" stroke="#475569" stroke-width="1.1" d="M1026.2,-3304.8C1026.35,-3286.42 1026.56,-3260.94 1026.73,-3240.74"/>
<polygon fill="#475569" stroke="#475569" stroke-width="1.1" points="1029.7,-3240.68 1026.8,-3232.15 1023.76,-3240.63 1029.7,-3240.68"/>
</g>
<!-- L7_Generic -->
<g id="node20" class="node">
<title>L7_Generic</title>
<path fill="#334155" stroke="#334155" stroke-width="1.4" d="M1119.5,-3109C1119.5,-3109 934.5,-3109 934.5,-3109 928.5,-3109 922.5,-3103 922.5,-3097 922.5,-3097 922.5,-3071 922.5,-3071 922.5,-3065 928.5,-3059 934.5,-3059 934.5,-3059 1119.5,-3059 1119.5,-3059 1125.5,-3059 1131.5,-3065 1131.5,-3071 1131.5,-3071 1131.5,-3097 1131.5,-3097 1131.5,-3103 1125.5,-3109 1119.5,-3109"/>
<text text-anchor="middle" x="1027" y="-3087" font-family="Segoe UI, Arial, sans-serif" font-size="10.00" fill="#94a3b8">L7: Generic CSS (capped 40)</text>
<text text-anchor="middle" x="1027" y="-3076" font-family="Segoe UI, Arial, sans-serif" font-size="10.00" fill="#94a3b8">(global selectors — conf 0.60, weight 0.2)</text>
</g>
<!-- L6_Custom&#45;&gt;L7_Generic -->
<g id="edge21" class="edge">
<title>L6_Custom&#45;&gt;L7_Generic</title>
<path fill="none" stroke="#475569" stroke-width="1.1" d="M1027,-3181.8C1027,-3163.42 1027,-3137.94 1027,-3117.74"/>
<polygon fill="#475569" stroke="#475569" stroke-width="1.1" points="1029.98,-3117.65 1027,-3109.15 1024.03,-3117.65 1029.98,-3117.65"/>
</g>
<!-- Gather_All -->
<g id="node21" class="node">
<title>Gather_All</title>
<path fill="#1e293b" stroke="#334155" stroke-width="1.4" d="M1164.5,-2986C1164.5,-2986 891.5,-2986 891.5,-2986 885.5,-2986 879.5,-2980 879.5,-2974 879.5,-2974 879.5,-2948 879.5,-2948 879.5,-2942 885.5,-2936 891.5,-2936 891.5,-2936 1164.5,-2936 1164.5,-2936 1170.5,-2936 1176.5,-2942 1176.5,-2948 1176.5,-2948 1176.5,-2974 1176.5,-2974 1176.5,-2980 1170.5,-2986 1164.5,-2986"/>
<text text-anchor="middle" x="1028" y="-2964" font-family="Segoe UI, Arial, sans-serif" font-size="10.00" fill="#cbd5e1">Gather All Candidates</text>
<text text-anchor="middle" x="1028" y="-2953" font-family="Segoe UI, Arial, sans-serif" font-size="10.00" fill="#cbd5e1">(PriceCandidate[]: price, currency, method, selector, confidence)</text>
</g>
<!-- L7_Generic&#45;&gt;Gather_All -->
<g id="edge22" class="edge">
<title>L7_Generic&#45;&gt;Gather_All</title>
<path fill="none" stroke="#475569" stroke-width="1.1" d="M1027.2,-3058.8C1027.35,-3040.42 1027.56,-3014.94 1027.73,-2994.74"/>
<polygon fill="#475569" stroke="#475569" stroke-width="1.1" points="1030.7,-2994.68 1027.8,-2986.15 1024.76,-2994.63 1030.7,-2994.68"/>
</g>
<!-- Has_Config_P4 -->
<g id="node22" class="node">
<title>Has_Config_P4</title>
<path fill="#d97706" stroke="#334155" stroke-width="1.4" d="M1269.33,-2848.21C1269.33,-2848.21 1188.17,-2828.79 1188.17,-2828.79 1182.34,-2827.4 1182.34,-2824.6 1188.17,-2823.21 1188.17,-2823.21 1269.33,-2803.79 1269.33,-2803.79 1275.16,-2802.4 1286.84,-2802.4 1292.67,-2803.79 1292.67,-2803.79 1373.83,-2823.21 1373.83,-2823.21 1379.66,-2824.6 1379.66,-2827.4 1373.83,-2828.79 1373.83,-2828.79 1292.67,-2848.21 1292.67,-2848.21 1286.84,-2849.6 1275.16,-2849.6 1269.33,-2848.21"/>
<text text-anchor="middle" x="1281" y="-2829" font-family="Segoe UI, Arial, sans-serif" font-size="10.00" fill="#ffffff">Retailer Config Exists</text>
<text text-anchor="middle" x="1281" y="-2818" font-family="Segoe UI, Arial, sans-serif" font-size="10.00" fill="#ffffff">&amp; Not Shell Config?</text>
</g>
<!-- Gather_All&#45;&gt;Has_Config_P4 -->
<g id="edge23" class="edge">
<title>Gather_All&#45;&gt;Has_Config_P4</title>
<path fill="none" stroke="#475569" stroke-width="1.1" d="M1073.82,-2935.91C1121.87,-2910.65 1196.59,-2871.37 1241.94,-2847.53"/>
<polygon fill="#475569" stroke="#475569" stroke-width="1.1" points="1243.37,-2850.14 1249.51,-2843.55 1240.6,-2844.88 1243.37,-2850.14"/>
</g>
<!-- AI_Map_Enabled -->
<g id="node23" class="node">
<title>AI_Map_Enabled</title>
<path fill="#d97706" stroke="#334155" stroke-width="1.4" d="M1269.33,-2716.21C1269.33,-2716.21 1188.17,-2696.79 1188.17,-2696.79 1182.34,-2695.4 1182.34,-2692.6 1188.17,-2691.21 1188.17,-2691.21 1269.33,-2671.79 1269.33,-2671.79 1275.16,-2670.4 1286.84,-2670.4 1292.67,-2671.79 1292.67,-2671.79 1373.83,-2691.21 1373.83,-2691.21 1379.66,-2692.6 1379.66,-2695.4 1373.83,-2696.79 1373.83,-2696.79 1292.67,-2716.21 1292.67,-2716.21 1286.84,-2717.6 1275.16,-2717.6 1269.33,-2716.21"/>
<text text-anchor="middle" x="1281" y="-2691.5" font-family="Segoe UI, Arial, sans-serif" font-size="10.00" fill="#ffffff">ai_auto_mapping_enabled?</text>
</g>
<!-- Has_Config_P4&#45;&gt;AI_Map_Enabled -->
<g id="edge25" class="edge">
<title>Has_Config_P4&#45;&gt;AI_Map_Enabled</title>
<path fill="none" stroke="#475569" stroke-width="1.1" d="M1281,-2800.85C1281,-2780.24 1281,-2750.41 1281,-2727.66"/>
<polygon fill="#475569" stroke="#475569" stroke-width="1.1" points="1283.98,-2727.52 1281,-2719.02 1278.03,-2727.52 1283.98,-2727.52"/>
<text text-anchor="middle" x="1287.5" y="-2757.8" font-family="Segoe UI, Arial, sans-serif" font-size="9.00" fill="#94a3b8">No</text>
</g>
<!-- Run_Consensus -->
<g id="node28" class="node">
<title>Run_Consensus</title>
<path fill="#1e293b" stroke="#334155" stroke-width="1.4" d="M1139.5,-2575C1139.5,-2575 918.5,-2575 918.5,-2575 912.5,-2575 906.5,-2569 906.5,-2563 906.5,-2563 906.5,-2537 906.5,-2537 906.5,-2531 912.5,-2525 918.5,-2525 918.5,-2525 1139.5,-2525 1139.5,-2525 1145.5,-2525 1151.5,-2531 1151.5,-2537 1151.5,-2537 1151.5,-2563 1151.5,-2563 1151.5,-2569 1145.5,-2575 1139.5,-2575"/>
<text text-anchor="middle" x="1029" y="-2553" font-family="Segoe UI, Arial, sans-serif" font-size="10.00" fill="#cbd5e1">findPriceConsensus(candidates)</text>
<text text-anchor="middle" x="1029" y="-2542" font-family="Segoe UI, Arial, sans-serif" font-size="10.00" fill="#cbd5e1">(Stage A: method short&#45;circuit → Stage B: weighted)</text>
</g>
<!-- Has_Config_P4&#45;&gt;Run_Consensus -->
<g id="edge24" class="edge">
<title>Has_Config_P4&#45;&gt;Run_Consensus</title>
<path fill="none" stroke="#475569" stroke-width="1.1" d="M1250.74,-2808.2C1196.88,-2778.31 1090,-2719 1090,-2719 1090,-2719 1058.37,-2631.89 1040.66,-2583.13"/>
<polygon fill="#475569" stroke="#475569" stroke-width="1.1" points="1043.44,-2582.04 1037.74,-2575.07 1037.84,-2584.08 1043.44,-2582.04"/>
<text text-anchor="middle" x="1121.5" y="-2691.8" font-family="Segoe UI, Arial, sans-serif" font-size="9.00" fill="#94a3b8">Yes → proceed</text>
</g>
<!-- Clean_Html -->
<g id="node24" class="node">
<title>Clean_Html</title>
<path fill="#7c3aed" stroke="#334155" stroke-width="1.4" d="M1412.5,-2575C1412.5,-2575 1227.5,-2575 1227.5,-2575 1221.5,-2575 1215.5,-2569 1215.5,-2563 1215.5,-2563 1215.5,-2537 1215.5,-2537 1215.5,-2531 1221.5,-2525 1227.5,-2525 1227.5,-2525 1412.5,-2525 1412.5,-2525 1418.5,-2525 1424.5,-2531 1424.5,-2537 1424.5,-2537 1424.5,-2563 1424.5,-2563 1424.5,-2569 1418.5,-2575 1412.5,-2575"/>
<text text-anchor="middle" x="1320" y="-2553" font-family="Segoe UI, Arial, sans-serif" font-size="10.00" fill="#ffffff">cleanHtml()</text>
<text text-anchor="middle" x="1320" y="-2542" font-family="Segoe UI, Arial, sans-serif" font-size="10.00" fill="#ffffff">(Prune to ≤50KB for Gemini context)</text>
</g>
<!-- AI_Map_Enabled&#45;&gt;Clean_Html -->
<g id="edge26" class="edge">
<title>AI_Map_Enabled&#45;&gt;Clean_Html</title>
<path fill="none" stroke="#475569" stroke-width="1.1" d="M1287.27,-2670.19C1293.72,-2646.7 1303.83,-2609.89 1311.1,-2583.39"/>
<polygon fill="#475569" stroke="#475569" stroke-width="1.1" points="1313.98,-2584.17 1313.36,-2575.18 1308.24,-2582.59 1313.98,-2584.17"/>
<text text-anchor="middle" x="1307" y="-2625.8" font-family="Segoe UI, Arial, sans-serif" font-size="9.00" fill="#94a3b8">Yes</text>
</g>
<!-- AI_Map_Enabled&#45;&gt;Run_Consensus -->
<g id="edge27" class="edge">
<title>AI_Map_Enabled&#45;&gt;Run_Consensus</title>
<path fill="none" stroke="#475569" stroke-width="1.1" d="M1250.6,-2675.87C1208.14,-2651.95 1130.55,-2608.22 1079.37,-2579.38"/>
<polygon fill="#475569" stroke="#475569" stroke-width="1.1" points="1080.57,-2576.65 1071.71,-2575.07 1077.65,-2581.83 1080.57,-2576.65"/>
<text text-anchor="middle" x="1207" y="-2625.8" font-family="Segoe UI, Arial, sans-serif" font-size="9.00" fill="#94a3b8">No → use generic</text>
</g>
<!-- Gemini_Gen -->
<g id="node25" class="node">
<title>Gemini_Gen</title>
<path fill="#7c3aed" stroke="#334155" stroke-width="1.4" d="M1436.5,-2440C1436.5,-2440 1239.5,-2440 1239.5,-2440 1233.5,-2440 1227.5,-2434 1227.5,-2428 1227.5,-2428 1227.5,-2402 1227.5,-2402 1227.5,-2396 1233.5,-2390 1239.5,-2390 1239.5,-2390 1436.5,-2390 1436.5,-2390 1442.5,-2390 1448.5,-2396 1448.5,-2402 1448.5,-2402 1448.5,-2428 1448.5,-2428 1448.5,-2434 1442.5,-2440 1436.5,-2440"/>
<text text-anchor="middle" x="1338" y="-2418" font-family="Segoe UI, Arial, sans-serif" font-size="10.00" fill="#ffffff">Gemini: RETAILER_GENERATION_PROMPT</text>
<text text-anchor="middle" x="1338" y="-2407" font-family="Segoe UI, Arial, sans-serif" font-size="10.00" fill="#ffffff">(Generate CSS selectors from DOM)</text>
</g>
<!-- Clean_Html&#45;&gt;Gemini_Gen -->
<g id="edge28" class="edge">
<title>Clean_Html&#45;&gt;Gemini_Gen</title>
<path fill="none" stroke="#475569" stroke-width="1.1" d="M1323.26,-2524.91C1326.13,-2503.67 1330.35,-2472.52 1333.54,-2448.97"/>
<polygon fill="#475569" stroke="#475569" stroke-width="1.1" points="1336.51,-2449.18 1334.7,-2440.36 1330.62,-2448.38 1336.51,-2449.18"/>
</g>
<!-- Save_Config -->
<g id="node26" class="node">
<title>Save_Config</title>
<path fill="#7c3aed" stroke="#334155" stroke-width="1.4" d="M1426.5,-2308C1426.5,-2308 1241.5,-2308 1241.5,-2308 1235.5,-2308 1229.5,-2302 1229.5,-2296 1229.5,-2296 1229.5,-2270 1229.5,-2270 1229.5,-2264 1235.5,-2258 1241.5,-2258 1241.5,-2258 1426.5,-2258 1426.5,-2258 1432.5,-2258 1438.5,-2264 1438.5,-2270 1438.5,-2270 1438.5,-2296 1438.5,-2296 1438.5,-2302 1432.5,-2308 1426.5,-2308"/>
<text text-anchor="middle" x="1334" y="-2286" font-family="Segoe UI, Arial, sans-serif" font-size="10.00" fill="#ffffff">Save to retailer_configs</text>
<text text-anchor="middle" x="1334" y="-2275" font-family="Segoe UI, Arial, sans-serif" font-size="10.00" fill="#ffffff">(price_selectors, name_selectors, etc.)</text>
</g>
<!-- Gemini_Gen&#45;&gt;Save_Config -->
<g id="edge29" class="edge">
<title>Gemini_Gen&#45;&gt;Save_Config</title>
<path fill="none" stroke="#475569" stroke-width="1.1" d="M1337.26,-2389.85C1336.62,-2369.24 1335.7,-2339.41 1335.01,-2316.66"/>
<polygon fill="#475569" stroke="#475569" stroke-width="1.1" points="1337.97,-2316.42 1334.74,-2308.02 1332.03,-2316.61 1337.97,-2316.42"/>
</g>
<!-- Re_Scrape -->
<g id="node27" class="node">
<title>Re_Scrape</title>
<path fill="#4f46e5" stroke="#334155" stroke-width="1.4" d="M1400.5,-2176C1400.5,-2176 1215.5,-2176 1215.5,-2176 1209.5,-2176 1203.5,-2170 1203.5,-2164 1203.5,-2164 1203.5,-2138 1203.5,-2138 1203.5,-2132 1209.5,-2126 1215.5,-2126 1215.5,-2126 1400.5,-2126 1400.5,-2126 1406.5,-2126 1412.5,-2132 1412.5,-2138 1412.5,-2138 1412.5,-2164 1412.5,-2164 1412.5,-2170 1406.5,-2176 1400.5,-2176"/>
<text text-anchor="middle" x="1308" y="-2148.5" font-family="Segoe UI, Arial, sans-serif" font-size="10.00" fill="#ffffff">Re&#45;run Extraction with New Config</text>
</g>
<!-- Save_Config&#45;&gt;Re_Scrape -->
<g id="edge30" class="edge">
<title>Save_Config&#45;&gt;Re_Scrape</title>
<path fill="none" stroke="#475569" stroke-width="1.1" d="M1329.17,-2257.85C1325.03,-2237.15 1319.03,-2207.14 1314.47,-2184.36"/>
<polygon fill="#475569" stroke="#475569" stroke-width="1.1" points="1317.39,-2183.77 1312.8,-2176.02 1311.55,-2184.94 1317.39,-2183.77"/>
</g>
<!-- Re_Scrape&#45;&gt;Run_Consensus -->
<g id="edge31" class="edge">
<title>Re_Scrape&#45;&gt;Run_Consensus</title>
<path fill="none" stroke="#475569" stroke-width="1.1" d="M1284.85,-2176.05C1254.76,-2207.33 1206,-2258 1206,-2258 1206,-2258 1094.14,-2441.9 1048.27,-2517.32"/>
<polygon fill="#475569" stroke="#475569" stroke-width="1.1" points="1045.66,-2515.88 1043.79,-2524.69 1050.75,-2518.97 1045.66,-2515.88"/>
</g>
<!-- Deal_Check -->
<g id="node29" class="node">
<title>Deal_Check</title>
<path fill="#d97706" stroke="#334155" stroke-width="1.4" d="M922.33,-2437.21C922.33,-2437.21 841.17,-2417.79 841.17,-2417.79 835.34,-2416.4 835.34,-2413.6 841.17,-2412.21 841.17,-2412.21 922.33,-2392.79 922.33,-2392.79 928.16,-2391.4 939.84,-2391.4 945.67,-2392.79 945.67,-2392.79 1026.83,-2412.21 1026.83,-2412.21 1032.66,-2413.6 1032.66,-2416.4 1026.83,-2417.79 1026.83,-2417.79 945.67,-2437.21 945.67,-2437.21 939.84,-2438.6 928.16,-2438.6 922.33,-2437.21"/>
<text text-anchor="middle" x="934" y="-2412.5" font-family="Segoe UI, Arial, sans-serif" font-size="10.00" fill="#ffffff">≥2 deal&#45;price agree?</text>
</g>
<!-- Run_Consensus&#45;&gt;Deal_Check -->
<g id="edge32" class="edge">
<title>Run_Consensus&#45;&gt;Deal_Check</title>
<path fill="none" stroke="#475569" stroke-width="1.1" d="M1011.8,-2524.91C995.51,-2502.12 971.08,-2467.92 953.95,-2443.94"/>
<polygon fill="#475569" stroke="#475569" stroke-width="1.1" points="956.25,-2442.03 948.89,-2436.85 951.41,-2445.49 956.25,-2442.03"/>
</g>
<!-- Member_Check -->
<g id="node30" class="node">
<title>Member_Check</title>
<path fill="#d97706" stroke="#334155" stroke-width="1.4" d="M919.33,-2305.21C919.33,-2305.21 838.17,-2285.79 838.17,-2285.79 832.34,-2284.4 832.34,-2281.6 838.17,-2280.21 838.17,-2280.21 919.33,-2260.79 919.33,-2260.79 925.16,-2259.4 936.84,-2259.4 942.67,-2260.79 942.67,-2260.79 1023.83,-2280.21 1023.83,-2280.21 1029.66,-2281.6 1029.66,-2284.4 1023.83,-2285.79 1023.83,-2285.79 942.67,-2305.21 942.67,-2305.21 936.84,-2306.6 925.16,-2306.6 919.33,-2305.21"/>
<text text-anchor="middle" x="931" y="-2280.5" font-family="Segoe UI, Arial, sans-serif" font-size="10.00" fill="#ffffff">≥2 member&#45;price agree?</text>
</g>
<!-- Deal_Check&#45;&gt;Member_Check -->
<g id="edge34" class="edge">
<title>Deal_Check&#45;&gt;Member_Check</title>
<path fill="none" stroke="#475569" stroke-width="1.1" d="M932.42,-2390.29C931.3,-2373.52 930,-2354 930,-2354 930,-2354 930,-2344 930,-2344 930,-2344 930.22,-2330.8 930.45,-2316.78"/>
<polygon fill="#475569" stroke="#475569" stroke-width="1.1" points="933.43,-2316.61 930.6,-2308.06 927.48,-2316.51 933.43,-2316.61"/>
<text text-anchor="middle" x="936.5" y="-2346.8" font-family="Segoe UI, Arial, sans-serif" font-size="9.00" fill="#94a3b8">No</text>
</g>
<!-- Has_Consensus -->
<g id="node35" class="node">
<title>Has_Consensus</title>
<path fill="#d97706" stroke="#334155" stroke-width="1.4" d="M821.33,-1629.21C821.33,-1629.21 740.17,-1609.79 740.17,-1609.79 734.34,-1608.4 734.34,-1605.6 740.17,-1604.21 740.17,-1604.21 821.33,-1584.79 821.33,-1584.79 827.16,-1583.4 838.84,-1583.4 844.67,-1584.79 844.67,-1584.79 925.83,-1604.21 925.83,-1604.21 931.66,-1605.6 931.66,-1608.4 925.83,-1609.79 925.83,-1609.79 844.67,-1629.21 844.67,-1629.21 838.84,-1630.6 827.16,-1630.6 821.33,-1629.21"/>
<text text-anchor="middle" x="833" y="-1604.5" font-family="Segoe UI, Arial, sans-serif" font-size="10.00" fill="#ffffff">Consensus Reached?</text>
</g>
<!-- Deal_Check&#45;&gt;Has_Consensus -->
<g id="edge33" class="edge">
<title>Deal_Check&#45;&gt;Has_Consensus</title>
<path fill="none" stroke="#475569" stroke-width="1.1" d="M956.35,-2395.05C992.3,-2364.56 1059,-2308 1059,-2308 1059,-2308 1084,-2284 1084,-2284 1084,-2284 1084,-2284 1084,-2084 1084,-2084 1112,-1958 1112,-1958 1112,-1958 1112,-1948 1112,-1948 1112,-1948 1109,-1697 1109,-1697 1109,-1697 1024,-1668 1024,-1668 1024,-1668 941.52,-1642.09 884.96,-1624.32"/>
<polygon fill="#475569" stroke="#475569" stroke-width="1.1" points="885.82,-1621.47 876.82,-1621.77 884.04,-1627.15 885.82,-1621.47"/>
<text text-anchor="middle" x="1139" y="-2016.8" font-family="Segoe UI, Arial, sans-serif" font-size="9.00" fill="#94a3b8">Yes → deal wins</text>
</g>
<!-- Pre_Check -->
<g id="node31" class="node">
<title>Pre_Check</title>
<path fill="#d97706" stroke="#334155" stroke-width="1.4" d="M821.33,-2173.21C821.33,-2173.21 740.17,-2153.79 740.17,-2153.79 734.34,-2152.4 734.34,-2149.6 740.17,-2148.21 740.17,-2148.21 821.33,-2128.79 821.33,-2128.79 827.16,-2127.4 838.84,-2127.4 844.67,-2128.79 844.67,-2128.79 925.83,-2148.21 925.83,-2148.21 931.66,-2149.6 931.66,-2152.4 925.83,-2153.79 925.83,-2153.79 844.67,-2173.21 844.67,-2173.21 838.84,-2174.6 827.16,-2174.6 821.33,-2173.21"/>
<text text-anchor="middle" x="833" y="-2148.5" font-family="Segoe UI, Arial, sans-serif" font-size="10.00" fill="#ffffff">≥2 pre&#45;order&#45;price agree?</text>
</g>
<!-- Member_Check&#45;&gt;Pre_Check -->
<g id="edge36" class="edge">
<title>Member_Check&#45;&gt;Pre_Check</title>
<path fill="none" stroke="#475569" stroke-width="1.1" d="M913.68,-2262.02C898.56,-2244.57 879,-2222 879,-2222 879,-2222 864.34,-2199.69 851.57,-2180.26"/>
<polygon fill="#475569" stroke="#475569" stroke-width="1.1" points="853.96,-2178.47 846.8,-2173 848.98,-2181.74 853.96,-2178.47"/>
<text text-anchor="middle" x="885.5" y="-2214.8" font-family="Segoe UI, Arial, sans-serif" font-size="9.00" fill="#94a3b8">No</text>
</g>
<!-- Member_Check&#45;&gt;Has_Consensus -->
<g id="edge35" class="edge">
<title>Member_Check&#45;&gt;Has_Consensus</title>
<path fill="none" stroke="#475569" stroke-width="1.1" d="M937.36,-2259.52C946.17,-2228.4 961,-2176 961,-2176 961,-2176 1021,-1948 1021,-1948 1021,-1948 1097,-1940 1097,-1940 1097,-1940 1097,-1697 1097,-1697 1097,-1697 959.48,-1650.64 882.94,-1624.84"/>
<polygon fill="#475569" stroke="#475569" stroke-width="1.1" points="883.84,-1622 874.83,-1622.1 881.94,-1627.64 883.84,-1622"/>
<text text-anchor="middle" x="1063" y="-1950.8" font-family="Segoe UI, Arial, sans-serif" font-size="9.00" fill="#94a3b8">Yes → member wins</text>
</g>
<!-- Orig_Check -->
<g id="node32" class="node">
<title>Orig_Check</title>
<path fill="#d97706" stroke="#334155" stroke-width="1.4" d="M821.33,-2041.21C821.33,-2041.21 740.17,-2021.79 740.17,-2021.79 734.34,-2020.4 734.34,-2017.6 740.17,-2016.21 740.17,-2016.21 821.33,-1996.79 821.33,-1996.79 827.16,-1995.4 838.84,-1995.4 844.67,-1996.79 844.67,-1996.79 925.83,-2016.21 925.83,-2016.21 931.66,-2017.6 931.66,-2020.4 925.83,-2021.79 925.83,-2021.79 844.67,-2041.21 844.67,-2041.21 838.84,-2042.6 827.16,-2042.6 821.33,-2041.21"/>
<text text-anchor="middle" x="833" y="-2016.5" font-family="Segoe UI, Arial, sans-serif" font-size="10.00" fill="#ffffff">≥2 original&#45;price agree?</text>
</g>
<!-- Pre_Check&#45;&gt;Orig_Check -->
<g id="edge38" class="edge">
<title>Pre_Check&#45;&gt;Orig_Check</title>
<path fill="none" stroke="#475569" stroke-width="1.1" d="M831.8,-2125.94C830.96,-2109.25 830,-2090 830,-2090 830,-2090 830,-2080 830,-2080 830,-2080 830.66,-2066.8 831.36,-2052.78"/>
<polygon fill="#475569" stroke="#475569" stroke-width="1.1" points="834.34,-2052.7 831.8,-2044.06 828.4,-2052.4 834.34,-2052.7"/>
<text text-anchor="middle" x="836.5" y="-2082.8" font-family="Segoe UI, Arial, sans-serif" font-size="9.00" fill="#94a3b8">No</text>
</g>
<!-- Pre_Check&#45;&gt;Has_Consensus -->
<g id="edge37" class="edge">
<title>Pre_Check&#45;&gt;Has_Consensus</title>
<path fill="none" stroke="#475569" stroke-width="1.1" d="M796.06,-2134.71C713.05,-2100.34 519,-2020 519,-2020 519,-2020 519,-2020 519,-1729 519,-1729 592,-1697 592,-1697 592,-1697 714.91,-1651.61 785.18,-1625.66"/>
<polygon fill="#475569" stroke="#475569" stroke-width="1.1" points="786.53,-1628.33 793.47,-1622.6 784.47,-1622.75 786.53,-1628.33"/>
<text text-anchor="middle" x="563" y="-1866.3" font-family="Segoe UI, Arial, sans-serif" font-size="9.00" fill="#94a3b8">Yes → pre&#45;order wins</text>
</g>
<!-- Weighted_Arb -->
<g id="node33" class="node">
<title>Weighted_Arb</title>
<path fill="#1e293b" stroke="#334155" stroke-width="1.4" d="M925.5,-1900C925.5,-1900 740.5,-1900 740.5,-1900 734.5,-1900 728.5,-1894 728.5,-1888 728.5,-1888 728.5,-1849 728.5,-1849 728.5,-1843 734.5,-1837 740.5,-1837 740.5,-1837 925.5,-1837 925.5,-1837 931.5,-1837 937.5,-1843 937.5,-1849 937.5,-1849 937.5,-1888 937.5,-1888 937.5,-1894 931.5,-1900 925.5,-1900"/>
<text text-anchor="middle" x="833" y="-1888" font-family="Segoe UI, Arial, sans-serif" font-size="10.00" fill="#cbd5e1">Group by (method + selector)</text>
<text text-anchor="middle" x="833" y="-1877" font-family="Segoe UI, Arial, sans-serif" font-size="10.00" fill="#cbd5e1">Accumulate weight × count</text>
<text text-anchor="middle" x="833" y="-1866" font-family="Segoe UI, Arial, sans-serif" font-size="10.00" fill="#cbd5e1">expert&#45;*=5.0 &#160;json&#45;ld=2.0</text>
<text text-anchor="middle" x="833" y="-1855" font-family="Segoe UI, Arial, sans-serif" font-size="10.00" fill="#cbd5e1">custom&#45;regex=1.6 &#160;custom&#45;css=1.5</text>
<text text-anchor="middle" x="833" y="-1844" font-family="Segoe UI, Arial, sans-serif" font-size="10.00" fill="#cbd5e1">generic&#45;css=0.2</text>
</g>
<!-- Orig_Check&#45;&gt;Weighted_Arb -->
<g id="edge40" class="edge">
<title>Orig_Check&#45;&gt;Weighted_Arb</title>
<path fill="none" stroke="#475569" stroke-width="1.1" d="M833,-1993.81C833,-1970.85 833,-1935.92 833,-1908.94"/>
<polygon fill="#475569" stroke="#475569" stroke-width="1.1" points="835.98,-1908.62 833,-1900.12 830.03,-1908.62 835.98,-1908.62"/>
<text text-anchor="middle" x="881.5" y="-1950.8" font-family="Segoe UI, Arial, sans-serif" font-size="9.00" fill="#94a3b8">No → weighted fallback</text>
</g>
<!-- Orig_Check&#45;&gt;Has_Consensus -->
<g id="edge39" class="edge">
<title>Orig_Check&#45;&gt;Has_Consensus</title>
<path fill="none" stroke="#475569" stroke-width="1.1" d="M797.99,-2002.22C747.44,-1979.42 660,-1940 660,-1940 660,-1940 618,-1837 618,-1837 618,-1837 572,-1801 572,-1801 572,-1801 572,-1791 572,-1791 572,-1791 653,-1697 653,-1697 653,-1697 738.97,-1654.49 792.08,-1628.23"/>
<polygon fill="#475569" stroke="#475569" stroke-width="1.1" points="793.68,-1630.76 799.99,-1624.32 791.05,-1625.42 793.68,-1630.76"/>
<text text-anchor="middle" x="612.5" y="-1793.8" font-family="Segoe UI, Arial, sans-serif" font-size="9.00" fill="#94a3b8">Yes → original wins</text>
</g>
<!-- Tie_Break -->
<g id="node34" class="node">
<title>Tie_Break</title>
<path fill="#92400e" stroke="#334155" stroke-width="1.4" d="M925.5,-1755C925.5,-1755 740.5,-1755 740.5,-1755 734.5,-1755 728.5,-1749 728.5,-1743 728.5,-1743 728.5,-1717 728.5,-1717 728.5,-1711 734.5,-1705 740.5,-1705 740.5,-1705 925.5,-1705 925.5,-1705 931.5,-1705 937.5,-1711 937.5,-1717 937.5,-1717 937.5,-1743 937.5,-1743 937.5,-1749 931.5,-1755 925.5,-1755"/>
<text text-anchor="middle" x="833" y="-1733" font-family="Segoe UI, Arial, sans-serif" font-size="10.00" fill="#fbbf24">Tie&#45;break:</text>
<text text-anchor="middle" x="833" y="-1722" font-family="Segoe UI, Arial, sans-serif" font-size="10.00" fill="#fbbf24">highest confidence → lowest price</text>
</g>
<!-- Weighted_Arb&#45;&gt;Tie_Break -->
<g id="edge41" class="edge">
<title>Weighted_Arb&#45;&gt;Tie_Break</title>
<path fill="none" stroke="#475569" stroke-width="1.1" d="M833,-1836.87C833,-1815.17 833,-1786.11 833,-1763.92"/>
<polygon fill="#475569" stroke="#475569" stroke-width="1.1" points="835.98,-1763.68 833,-1755.18 830.03,-1763.68 835.98,-1763.68"/>
</g>
<!-- Tie_Break&#45;&gt;Has_Consensus -->
<g id="edge42" class="edge">
<title>Tie_Break&#45;&gt;Has_Consensus</title>
<path fill="none" stroke="#475569" stroke-width="1.1" d="M833,-1704.8C833,-1686.42 833,-1660.94 833,-1640.74"/>
<polygon fill="#475569" stroke="#475569" stroke-width="1.1" points="835.98,-1640.65 833,-1632.15 830.03,-1640.65 835.98,-1640.65"/>
</g>
<!-- OOS_Check -->
<g id="node36" class="node">
<title>OOS_Check</title>
<path fill="#d97706" stroke="#334155" stroke-width="1.4" d="M730.33,-1485.21C730.33,-1485.21 649.17,-1465.79 649.17,-1465.79 643.34,-1464.4 643.34,-1461.6 649.17,-1460.21 649.17,-1460.21 730.33,-1440.79 730.33,-1440.79 736.16,-1439.4 747.84,-1439.4 753.67,-1440.79 753.67,-1440.79 834.83,-1460.21 834.83,-1460.21 840.66,-1461.6 840.66,-1464.4 834.83,-1465.79 834.83,-1465.79 753.67,-1485.21 753.67,-1485.21 747.84,-1486.6 736.16,-1486.6 730.33,-1485.21"/>
<text text-anchor="middle" x="742" y="-1460.5" font-family="Segoe UI, Arial, sans-serif" font-size="10.00" fill="#ffffff">Stock = out_of_stock?</text>
</g>
<!-- Has_Consensus&#45;&gt;OOS_Check -->
<g id="edge43" class="edge">
<title>Has_Consensus&#45;&gt;OOS_Check</title>
<path fill="none" stroke="#475569" stroke-width="1.1" d="M819.57,-1585.05C803.85,-1560.51 777.72,-1519.74 760.18,-1492.38"/>
<polygon fill="#475569" stroke="#475569" stroke-width="1.1" points="762.57,-1490.59 755.48,-1485.04 757.56,-1493.8 762.57,-1490.59"/>
<text text-anchor="middle" x="800" y="-1538.8" font-family="Segoe UI, Arial, sans-serif" font-size="9.00" fill="#94a3b8">Yes</text>
</g>
<!-- Set_Review -->
<g id="node41" class="node">
<title>Set_Review</title>
<path fill="#db2777" stroke="#334155" stroke-width="1.4" d="M824.5,-804C824.5,-804 639.5,-804 639.5,-804 633.5,-804 627.5,-798 627.5,-792 627.5,-792 627.5,-766 627.5,-766 627.5,-760 633.5,-754 639.5,-754 639.5,-754 824.5,-754 824.5,-754 830.5,-754 836.5,-760 836.5,-766 836.5,-766 836.5,-792 836.5,-792 836.5,-798 830.5,-804 824.5,-804"/>
<text text-anchor="middle" x="732" y="-782" font-family="Segoe UI, Arial, sans-serif" font-size="10.00" fill="#ffffff">needsReview = true</text>
<text text-anchor="middle" x="732" y="-771" font-family="Segoe UI, Arial, sans-serif" font-size="10.00" fill="#ffffff">(DB: needs_price_review = true)</text>
</g>
<!-- Has_Consensus&#45;&gt;Set_Review -->
<g id="edge44" class="edge">
<title>Has_Consensus&#45;&gt;Set_Review</title>
<path fill="none" stroke="#475569" stroke-width="1.1" d="M851.17,-1586.32C872.5,-1563.21 905,-1528 905,-1528 905,-1528 961,-1464 961,-1464 961,-1464 961,-1464 961,-922 961,-922 905,-882 905,-882 905,-882 831.56,-838.7 780.38,-808.52"/>
<polygon fill="#475569" stroke="#475569" stroke-width="1.1" points="781.83,-805.93 773,-804.17 778.81,-811.05 781.83,-805.93"/>
<text text-anchor="middle" x="1006.5" y="-1184.8" font-family="Segoe UI, Arial, sans-serif" font-size="9.00" fill="#94a3b8">No (tie/no candidates)</text>
</g>
<!-- Solo_JSONLD -->
<g id="node37" class="node">
<title>Solo_JSONLD</title>
<path fill="#d97706" stroke="#334155" stroke-width="1.4" d="M730.22,-1353.73C730.22,-1353.73 623.87,-1333.27 623.87,-1333.27 617.98,-1332.13 617.98,-1329.87 623.87,-1328.73 623.87,-1328.73 730.22,-1308.27 730.22,-1308.27 736.11,-1307.13 747.89,-1307.13 753.78,-1308.27 753.78,-1308.27 860.13,-1328.73 860.13,-1328.73 866.02,-1329.87 866.02,-1332.13 860.13,-1333.27 860.13,-1333.27 753.78,-1353.73 753.78,-1353.73 747.89,-1354.87 736.11,-1354.87 730.22,-1353.73"/>
<text text-anchor="middle" x="742" y="-1328.5" font-family="Segoe UI, Arial, sans-serif" font-size="10.00" fill="#ffffff">Single JSON&#45;LD, no corroboration?</text>
</g>
<!-- OOS_Check&#45;&gt;Solo_JSONLD -->
<g id="edge45" class="edge">
<title>OOS_Check&#45;&gt;Solo_JSONLD</title>
<path fill="none" stroke="#475569" stroke-width="1.1" d="M730.27,-1440.68C720.79,-1423.43 709,-1402 709,-1402 709,-1402 709,-1392 709,-1392 709,-1392 717.33,-1376.86 725.61,-1361.79"/>
<polygon fill="#475569" stroke="#475569" stroke-width="1.1" points="728.41,-1362.88 729.9,-1354 723.2,-1360.02 728.41,-1362.88"/>
<text text-anchor="middle" x="730.5" y="-1394.8" font-family="Segoe UI, Arial, sans-serif" font-size="9.00" fill="#94a3b8">Yes (OOS)</text>
</g>
<!-- AI_Verify_Check -->
<g id="node42" class="node">
<title>AI_Verify_Check</title>
<path fill="#d97706" stroke="#334155" stroke-width="1.4" d="M330.33,-1209.21C330.33,-1209.21 249.17,-1189.79 249.17,-1189.79 243.34,-1188.4 243.34,-1185.6 249.17,-1184.21 249.17,-1184.21 330.33,-1164.79 330.33,-1164.79 336.16,-1163.4 347.84,-1163.4 353.67,-1164.79 353.67,-1164.79 434.83,-1184.21 434.83,-1184.21 440.66,-1185.6 440.66,-1188.4 434.83,-1189.79 434.83,-1189.79 353.67,-1209.21 353.67,-1209.21 347.84,-1210.6 336.16,-1210.6 330.33,-1209.21"/>
<text text-anchor="middle" x="342" y="-1184.5" font-family="Segoe UI, Arial, sans-serif" font-size="10.00" fill="#ffffff">ai_verification_enabled?</text>
</g>
<!-- OOS_Check&#45;&gt;AI_Verify_Check -->
<g id="edge46" class="edge">
<title>OOS_Check&#45;&gt;AI_Verify_Check</title>
<path fill="none" stroke="#475569" stroke-width="1.1" d="M709.5,-1445.44C651,-1415.62 534,-1356 534,-1356 534,-1356 423.52,-1259.33 370.17,-1212.65"/>
<polygon fill="#475569" stroke="#475569" stroke-width="1.1" points="372.01,-1210.3 363.65,-1206.95 368.09,-1214.78 372.01,-1210.3"/>
<text text-anchor="middle" x="561.5" y="-1328.8" font-family="Segoe UI, Arial, sans-serif" font-size="9.00" fill="#94a3b8">No (in_stock)</text>
</g>
<!-- Low_Conf -->
<g id="node38" class="node">
<title>Low_Conf</title>
<path fill="#d97706" stroke="#334155" stroke-width="1.4" d="M685.25,-1209.56C685.25,-1209.56 588.18,-1189.44 588.18,-1189.44 582.31,-1188.22 582.31,-1185.78 588.18,-1184.56 588.18,-1184.56 685.25,-1164.44 685.25,-1164.44 691.12,-1163.22 702.88,-1163.22 708.75,-1164.44 708.75,-1164.44 805.82,-1184.56 805.82,-1184.56 811.69,-1185.78 811.69,-1188.22 805.82,-1189.44 805.82,-1189.44 708.75,-1209.56 708.75,-1209.56 702.88,-1210.78 691.12,-1210.78 685.25,-1209.56"/>
<text text-anchor="middle" x="697" y="-1184.5" font-family="Segoe UI, Arial, sans-serif" font-size="10.00" fill="#ffffff">Score &lt; 0.85 &amp; generic method?</text>
</g>
<!-- Solo_JSONLD&#45;&gt;Low_Conf -->
<g id="edge48" class="edge">
<title>Solo_JSONLD&#45;&gt;Low_Conf</title>
<path fill="none" stroke="#475569" stroke-width="1.1" d="M734.77,-1307.19C727.19,-1283.27 715.24,-1245.56 706.81,-1218.97"/>
<polygon fill="#475569" stroke="#475569" stroke-width="1.1" points="709.62,-1217.96 704.21,-1210.76 703.94,-1219.76 709.62,-1217.96"/>
<text text-anchor="middle" x="728.5" y="-1262.8" font-family="Segoe UI, Arial, sans-serif" font-size="9.00" fill="#94a3b8">No</text>
</g>
<!-- Nullify_Price -->
<g id="node40" class="node">
<title>Nullify_Price</title>
<path fill="#dc2626" stroke="#334155" stroke-width="1.4" d="M829.5,-948C829.5,-948 644.5,-948 644.5,-948 638.5,-948 632.5,-942 632.5,-936 632.5,-936 632.5,-910 632.5,-910 632.5,-904 638.5,-898 644.5,-898 644.5,-898 829.5,-898 829.5,-898 835.5,-898 841.5,-904 841.5,-910 841.5,-910 841.5,-936 841.5,-936 841.5,-942 835.5,-948 829.5,-948"/>
<text text-anchor="middle" x="737" y="-926" font-family="Segoe UI, Arial, sans-serif" font-size="10.00" fill="#ffffff">Nullify price → null</text>
<text text-anchor="middle" x="737" y="-915" font-family="Segoe UI, Arial, sans-serif" font-size="10.00" fill="#ffffff">needsReview = true</text>
</g>
<!-- Solo_JSONLD&#45;&gt;Nullify_Price -->
<g id="edge47" class="edge">
<title>Solo_JSONLD&#45;&gt;Nullify_Price</title>
<path fill="none" stroke="#475569" stroke-width="1.1" d="M766.73,-1310.52C796.05,-1287.42 841,-1252 841,-1252 841,-1252 841,-1162 841,-1162 841,-1162 779.37,-1020.96 751,-956.03"/>
<polygon fill="#475569" stroke="#475569" stroke-width="1.1" points="753.67,-954.73 747.54,-948.13 748.22,-957.11 753.67,-954.73"/>
<text text-anchor="middle" x="833" y="-1118.8" font-family="Segoe UI, Arial, sans-serif" font-size="9.00" fill="#94a3b8">Yes</text>
</g>
<!-- Anchor_Drift -->
<g id="node39" class="node">
<title>Anchor_Drift</title>
<path fill="#d97706" stroke="#334155" stroke-width="1.4" d="M587.31,-1077.31C587.31,-1077.31 502.09,-1057.69 502.09,-1057.69 496.24,-1056.35 496.24,-1053.65 502.09,-1052.31 502.09,-1052.31 587.31,-1032.69 587.31,-1032.69 593.15,-1031.35 604.85,-1031.35 610.69,-1032.69 610.69,-1032.69 695.91,-1052.31 695.91,-1052.31 701.76,-1053.65 701.76,-1056.35 695.91,-1057.69 695.91,-1057.69 610.69,-1077.31 610.69,-1077.31 604.85,-1078.65 593.15,-1078.65 587.31,-1077.31"/>
<text text-anchor="middle" x="599" y="-1052.5" font-family="Segoe UI, Arial, sans-serif" font-size="10.00" fill="#ffffff">Price &lt; 50% of anchorPrice?</text>
</g>
<!-- Low_Conf&#45;&gt;Anchor_Drift -->
<g id="edge50" class="edge">
<title>Low_Conf&#45;&gt;Anchor_Drift</title>
<path fill="none" stroke="#475569" stroke-width="1.1" d="M681.25,-1165.11C664.61,-1143.03 638.27,-1108.1 619.9,-1083.72"/>
<polygon fill="#475569" stroke="#475569" stroke-width="1.1" points="622.2,-1081.83 614.71,-1076.83 617.45,-1085.41 622.2,-1081.83"/>
<text text-anchor="middle" x="656.5" y="-1118.8" font-family="Segoe UI, Arial, sans-serif" font-size="9.00" fill="#94a3b8">No</text>
</g>
<!-- Low_Conf&#45;&gt;Nullify_Price -->
<g id="edge49" class="edge">
<title>Low_Conf&#45;&gt;Nullify_Price</title>
<path fill="none" stroke="#475569" stroke-width="1.1" d="M704.29,-1163.26C714.28,-1132.11 731,-1080 731,-1080 731,-1080 748,-994 748,-994 748,-994 748,-984 748,-984 748,-984 745.58,-970.8 743.01,-956.78"/>
<polygon fill="#475569" stroke="#475569" stroke-width="1.1" points="745.87,-955.88 741.41,-948.06 740.02,-956.96 745.87,-955.88"/>
<text text-anchor="middle" x="748" y="-1052.8" font-family="Segoe UI, Arial, sans-serif" font-size="9.00" fill="#94a3b8">Yes</text>
</g>
<!-- Anchor_Drift&#45;&gt;Nullify_Price -->
<g id="edge51" class="edge">
<title>Anchor_Drift&#45;&gt;Nullify_Price</title>
<path fill="none" stroke="#475569" stroke-width="1.1" d="M619.66,-1034.54C642.26,-1013.25 678.75,-978.87 705.05,-954.1"/>
<polygon fill="#475569" stroke="#475569" stroke-width="1.1" points="707.35,-956.02 711.5,-948.02 703.27,-951.69 707.35,-956.02"/>
<text text-anchor="middle" x="704.5" y="-986.8" font-family="Segoe UI, Arial, sans-serif" font-size="9.00" fill="#94a3b8">Yes (&gt;50% drift)</text>
</g>
<!-- Anchor_Drift&#45;&gt;AI_Verify_Check -->
<g id="edge52" class="edge">
<title>Anchor_Drift&#45;&gt;AI_Verify_Check</title>
<path fill="none" stroke="#475569" stroke-width="1.1" d="M566.24,-1072.57C519.26,-1096.34 432.85,-1140.04 382.11,-1165.71"/>
<polygon fill="#475569" stroke="#475569" stroke-width="1.1" points="380.53,-1163.18 374.29,-1169.67 383.22,-1168.48 380.53,-1163.18"/>
<text text-anchor="middle" x="514.5" y="-1118.8" font-family="Segoe UI, Arial, sans-serif" font-size="9.00" fill="#94a3b8">No (within range)</text>
</g>
<!-- Nullify_Price&#45;&gt;Set_Review -->
<g id="edge53" class="edge">
<title>Nullify_Price&#45;&gt;Set_Review</title>
<path fill="none" stroke="#475569" stroke-width="1.1" d="M736.15,-897.91C735.33,-874.55 734.08,-838.93 733.16,-812.96"/>
<polygon fill="#475569" stroke="#475569" stroke-width="1.1" points="736.12,-812.6 732.85,-804.21 730.18,-812.81 736.12,-812.6"/>
</g>
<!-- Inject_Cands -->
<g id="node46" class="node">
<title>Inject_Cands</title>
<path fill="#1e293b" stroke="#334155" stroke-width="1.4" d="M819.5,-681C819.5,-681 634.5,-681 634.5,-681 628.5,-681 622.5,-675 622.5,-669 622.5,-669 622.5,-643 622.5,-643 622.5,-637 628.5,-631 634.5,-631 634.5,-631 819.5,-631 819.5,-631 825.5,-631 831.5,-637 831.5,-643 831.5,-643 831.5,-669 831.5,-669 831.5,-675 825.5,-681 819.5,-681"/>
<text text-anchor="middle" x="727" y="-659" font-family="Segoe UI, Arial, sans-serif" font-size="10.00" fill="#cbd5e1">Inject member&#45;price &amp; original&#45;price</text>
<text text-anchor="middle" x="727" y="-648" font-family="Segoe UI, Arial, sans-serif" font-size="10.00" fill="#cbd5e1">as typed PriceCandidate entries</text>
</g>
<!-- Set_Review&#45;&gt;Inject_Cands -->
<g id="edge59" class="edge">
<title>Set_Review&#45;&gt;Inject_Cands</title>
<path fill="none" stroke="#475569" stroke-width="1.1" d="M731,-753.8C730.24,-735.42 729.19,-709.94 728.35,-689.74"/>
<polygon fill="#475569" stroke="#475569" stroke-width="1.1" points="731.32,-689.52 728,-681.15 725.38,-689.77 731.32,-689.52"/>
</g>
<!-- Gemini_Verify -->
<g id="node43" class="node">
<title>Gemini_Verify</title>
<path fill="#7c3aed" stroke="#334155" stroke-width="1.4" d="M431.5,-1080C431.5,-1080 246.5,-1080 246.5,-1080 240.5,-1080 234.5,-1074 234.5,-1068 234.5,-1068 234.5,-1042 234.5,-1042 234.5,-1036 240.5,-1030 246.5,-1030 246.5,-1030 431.5,-1030 431.5,-1030 437.5,-1030 443.5,-1036 443.5,-1042 443.5,-1042 443.5,-1068 443.5,-1068 443.5,-1074 437.5,-1080 431.5,-1080"/>
<text text-anchor="middle" x="339" y="-1058" font-family="Segoe UI, Arial, sans-serif" font-size="10.00" fill="#ffffff">Gemini Cross&#45;Check</text>
<text text-anchor="middle" x="339" y="-1047" font-family="Segoe UI, Arial, sans-serif" font-size="10.00" fill="#ffffff">(Verify price against denoised HTML)</text>
</g>
<!-- AI_Verify_Check&#45;&gt;Gemini_Verify -->
<g id="edge54" class="edge">
<title>AI_Verify_Check&#45;&gt;Gemini_Verify</title>
<path fill="none" stroke="#475569" stroke-width="1.1" d="M341.44,-1161.85C340.97,-1141.24 340.28,-1111.41 339.75,-1088.66"/>
<polygon fill="#475569" stroke="#475569" stroke-width="1.1" points="342.72,-1088.45 339.55,-1080.02 336.78,-1088.58 342.72,-1088.45"/>
<text text-anchor="middle" x="349" y="-1118.8" font-family="Segoe UI, Arial, sans-serif" font-size="9.00" fill="#94a3b8">Yes</text>
</g>
<!-- Persist_Price -->
<g id="node45" class="node">
<title>Persist_Price</title>
<path fill="#059669" stroke="#334155" stroke-width="1.4" d="M456,-804C456,-804 250,-804 250,-804 244,-804 238,-798 238,-792 238,-792 238,-766 238,-766 238,-760 244,-754 250,-754 250,-754 456,-754 456,-754 462,-754 468,-760 468,-766 468,-766 468,-792 468,-792 468,-798 462,-804 456,-804"/>
<text text-anchor="middle" x="353" y="-782" font-family="Segoe UI, Arial, sans-serif" font-size="10.00" fill="#ffffff">saveScrapeResult()</text>
<text text-anchor="middle" x="353" y="-771" font-family="Segoe UI, Arial, sans-serif" font-size="10.00" fill="#ffffff">(price_history, stock_status_history, product row)</text>
</g>
<!-- AI_Verify_Check&#45;&gt;Persist_Price -->
<g id="edge55" class="edge">
<title>AI_Verify_Check&#45;&gt;Persist_Price</title>
<path fill="none" stroke="#475569" stroke-width="1.1" d="M318.88,-1167.29C281.27,-1136.86 211,-1080 211,-1080 211,-1080 211,-1030 211,-1030 211,-1030 215,-882 215,-882 215,-882 272.63,-839.41 313.4,-809.27"/>
<polygon fill="#475569" stroke="#475569" stroke-width="1.1" points="315.23,-811.62 320.3,-804.17 311.69,-806.83 315.23,-811.62"/>
<text text-anchor="middle" x="234.5" y="-986.8" font-family="Segoe UI, Arial, sans-serif" font-size="9.00" fill="#94a3b8">No — skip</text>
</g>
<!-- Verify_Pass -->
<g id="node44" class="node">
<title>Verify_Pass</title>
<path fill="#d97706" stroke="#334155" stroke-width="1.4" d="M331.33,-945.21C331.33,-945.21 250.17,-925.79 250.17,-925.79 244.34,-924.4 244.34,-921.6 250.17,-920.21 250.17,-920.21 331.33,-900.79 331.33,-900.79 337.16,-899.4 348.84,-899.4 354.67,-900.79 354.67,-900.79 435.83,-920.21 435.83,-920.21 441.66,-921.6 441.66,-924.4 435.83,-925.79 435.83,-925.79 354.67,-945.21 354.67,-945.21 348.84,-946.6 337.16,-946.6 331.33,-945.21"/>
<text text-anchor="middle" x="343" y="-920.5" font-family="Segoe UI, Arial, sans-serif" font-size="10.00" fill="#ffffff">Verification Passed?</text>
</g>
<!-- Gemini_Verify&#45;&gt;Verify_Pass -->
<g id="edge56" class="edge">
<title>Gemini_Verify&#45;&gt;Verify_Pass</title>
<path fill="none" stroke="#475569" stroke-width="1.1" d="M339.74,-1029.85C340.38,-1009.24 341.3,-979.41 341.99,-956.66"/>
<polygon fill="#475569" stroke="#475569" stroke-width="1.1" points="344.97,-956.61 342.26,-948.02 339.03,-956.42 344.97,-956.61"/>
</g>
<!-- Verify_Pass&#45;&gt;Set_Review -->
<g id="edge58" class="edge">
<title>Verify_Pass&#45;&gt;Set_Review</title>
<path fill="none" stroke="#475569" stroke-width="1.1" d="M382.94,-907.51C445.11,-884.95 558,-844 558,-844 558,-844 611.03,-824.5 658.54,-807.02"/>
<polygon fill="#475569" stroke="#475569" stroke-width="1.1" points="659.76,-809.74 666.71,-804.01 657.71,-804.16 659.76,-809.74"/>
<text text-anchor="middle" x="589" y="-854.8" font-family="Segoe UI, Arial, sans-serif" font-size="9.00" fill="#94a3b8">No → ai_status=corrected</text>
</g>
<!-- Verify_Pass&#45;&gt;Persist_Price -->
<g id="edge57" class="edge">
<title>Verify_Pass&#45;&gt;Persist_Price</title>
<path fill="none" stroke="#475569" stroke-width="1.1" d="M344.67,-898.23C346.32,-874.93 348.83,-839.19 350.67,-813.11"/>
<polygon fill="#475569" stroke="#475569" stroke-width="1.1" points="353.66,-813.01 351.29,-804.32 347.72,-812.59 353.66,-813.01"/>
<text text-anchor="middle" x="398.5" y="-854.8" font-family="Segoe UI, Arial, sans-serif" font-size="9.00" fill="#94a3b8">Yes → ai_status=verified</text>
</g>
<!-- Auto_Config -->
<g id="node49" class="node">
<title>Auto_Config</title>
<path fill="#1e293b" stroke="#334155" stroke-width="1.4" d="M455,-681C455,-681 257,-681 257,-681 251,-681 245,-675 245,-669 245,-669 245,-643 245,-643 245,-637 251,-631 257,-631 257,-631 455,-631 455,-631 461,-631 467,-637 467,-643 467,-643 467,-669 467,-669 467,-675 461,-681 455,-681"/>
<text text-anchor="middle" x="356" y="-659" font-family="Segoe UI, Arial, sans-serif" font-size="10.00" fill="#cbd5e1">runAutoRetailerConfig()</text>
<text text-anchor="middle" x="356" y="-648" font-family="Segoe UI, Arial, sans-serif" font-size="10.00" fill="#cbd5e1">(resolveWinningSelector → unshift to priority 0)</text>
</g>
<!-- Persist_Price&#45;&gt;Auto_Config -->
<g id="edge63" class="edge">
<title>Persist_Price&#45;&gt;Auto_Config</title>
<path fill="none" stroke="#475569" stroke-width="1.1" d="M353.6,-753.8C354.06,-735.42 354.69,-709.94 355.19,-689.74"/>
<polygon fill="#475569" stroke="#475569" stroke-width="1.1" points="358.16,-689.72 355.4,-681.15 352.22,-689.58 358.16,-689.72"/>
</g>
<!-- Voting_Modal -->
<g id="node47" class="node">
<title>Voting_Modal</title>
<path fill="#db2777" stroke="#334155" stroke-width="1.4" d="M816.5,-558C816.5,-558 631.5,-558 631.5,-558 625.5,-558 619.5,-552 619.5,-546 619.5,-546 619.5,-520 619.5,-520 619.5,-514 625.5,-508 631.5,-508 631.5,-508 816.5,-508 816.5,-508 822.5,-508 828.5,-514 828.5,-520 828.5,-520 828.5,-546 828.5,-546 828.5,-552 822.5,-558 816.5,-558"/>
<text text-anchor="middle" x="724" y="-536" font-family="Segoe UI, Arial, sans-serif" font-size="10.00" fill="#ffffff">Frontend PriceSelectionModal</text>
<text text-anchor="middle" x="724" y="-525" font-family="Segoe UI, Arial, sans-serif" font-size="10.00" fill="#ffffff">(Tab UI: candidates by tier + confidence)</text>
</g>
<!-- Inject_Cands&#45;&gt;Voting_Modal -->
<g id="edge60" class="edge">
<title>Inject_Cands&#45;&gt;Voting_Modal</title>
<path fill="none" stroke="#475569" stroke-width="1.1" d="M726.4,-630.8C725.94,-612.42 725.31,-586.94 724.81,-566.74"/>
<polygon fill="#475569" stroke="#475569" stroke-width="1.1" points="727.78,-566.58 724.6,-558.15 721.84,-566.72 727.78,-566.58"/>
</g>
<!-- User_Vote -->
<g id="node48" class="node">
<title>User_Vote</title>
<path fill="#db2777" stroke="#334155" stroke-width="1.4" d="M815.5,-435C815.5,-435 630.5,-435 630.5,-435 624.5,-435 618.5,-429 618.5,-423 618.5,-423 618.5,-397 618.5,-397 618.5,-391 624.5,-385 630.5,-385 630.5,-385 815.5,-385 815.5,-385 821.5,-385 827.5,-391 827.5,-397 827.5,-397 827.5,-423 827.5,-423 827.5,-429 821.5,-435 815.5,-435"/>
<text text-anchor="middle" x="723" y="-418.5" font-family="Segoe UI, Arial, sans-serif" font-size="10.00" fill="#ffffff">User Selects Candidate</text>
<text text-anchor="middle" x="723" y="-407.5" font-family="Segoe UI, Arial, sans-serif" font-size="10.00" fill="#ffffff">(POST /products/:id/confirm)</text>
<text text-anchor="middle" x="723" y="-396.5" font-family="Segoe UI, Arial, sans-serif" font-size="10.00" fill="#ffffff">selectedPrice + selectedMethod + selector</text>
</g>
<!-- Voting_Modal&#45;&gt;User_Vote -->
<g id="edge61" class="edge">
<title>Voting_Modal&#45;&gt;User_Vote</title>
<path fill="none" stroke="#475569" stroke-width="1.1" d="M723.8,-507.8C723.65,-489.42 723.44,-463.94 723.27,-443.74"/>
<polygon fill="#475569" stroke="#475569" stroke-width="1.1" points="726.24,-443.63 723.2,-435.15 720.3,-443.68 726.24,-443.63"/>
</g>
<!-- User_Vote&#45;&gt;Persist_Price -->
<g id="edge62" class="edge">
<title>User_Vote&#45;&gt;Persist_Price</title>
<path fill="none" stroke="#475569" stroke-width="1.1" d="M691.28,-435.23C653.66,-463.96 596,-508 596,-508 596,-508 490,-681 490,-681 490,-681 434.64,-720.19 394.31,-748.75"/>
<polygon fill="#475569" stroke="#475569" stroke-width="1.1" points="392.44,-746.43 387.22,-753.77 395.87,-751.29 392.44,-746.43"/>
</g>
<!-- Stale_Track -->
<g id="node50" class="node">
<title>Stale_Track</title>
<path fill="#1e293b" stroke="#334155" stroke-width="1.4" d="M458.5,-558C458.5,-558 273.5,-558 273.5,-558 267.5,-558 261.5,-552 261.5,-546 261.5,-546 261.5,-520 261.5,-520 261.5,-514 267.5,-508 273.5,-508 273.5,-508 458.5,-508 458.5,-508 464.5,-508 470.5,-514 470.5,-520 470.5,-520 470.5,-546 470.5,-546 470.5,-552 464.5,-558 458.5,-558"/>
<text text-anchor="middle" x="366" y="-541.5" font-family="Segoe UI, Arial, sans-serif" font-size="10.00" fill="#cbd5e1">Update selector_metadata</text>
<text text-anchor="middle" x="366" y="-530.5" font-family="Segoe UI, Arial, sans-serif" font-size="10.00" fill="#cbd5e1">(match_count++ &#160;consecutive_failures++</text>
<text text-anchor="middle" x="366" y="-519.5" font-family="Segoe UI, Arial, sans-serif" font-size="10.00" fill="#cbd5e1">last_matched_at = now())</text>
</g>
<!-- Auto_Config&#45;&gt;Stale_Track -->
<g id="edge64" class="edge">
<title>Auto_Config&#45;&gt;Stale_Track</title>
<path fill="none" stroke="#475569" stroke-width="1.1" d="M358,-630.8C359.52,-612.42 361.62,-586.94 363.29,-566.74"/>
<polygon fill="#475569" stroke="#475569" stroke-width="1.1" points="366.27,-566.87 364,-558.15 360.34,-566.38 366.27,-566.87"/>
</g>
<!-- Score_Evict -->
<g id="node51" class="node">
<title>Score_Evict</title>
<path fill="#1e293b" stroke="#334155" stroke-width="1.4" d="M480,-435C480,-435 276,-435 276,-435 270,-435 264,-429 264,-423 264,-423 264,-397 264,-397 264,-391 270,-385 276,-385 276,-385 480,-385 480,-385 486,-385 492,-391 492,-397 492,-397 492,-423 492,-423 492,-429 486,-435 480,-435"/>
<text text-anchor="middle" x="378" y="-413" font-family="Segoe UI, Arial, sans-serif" font-size="10.00" fill="#cbd5e1">Score&#45;Based Eviction</text>
<text text-anchor="middle" x="378" y="-402" font-family="Segoe UI, Arial, sans-serif" font-size="10.00" fill="#cbd5e1">(cap at 10; evict score=match_count−failures×2)</text>
</g>
<!-- Stale_Track&#45;&gt;Score_Evict -->
<g id="edge65" class="edge">
<title>Stale_Track&#45;&gt;Score_Evict</title>
<path fill="none" stroke="#475569" stroke-width="1.1" d="M368.4,-507.8C370.22,-489.42 372.75,-463.94 374.75,-443.74"/>
<polygon fill="#475569" stroke="#475569" stroke-width="1.1" points="377.73,-443.91 375.6,-435.15 371.81,-443.32 377.73,-443.91"/>
</g>
<!-- Clean_Generic -->
<g id="node52" class="node">
<title>Clean_Generic</title>
<path fill="#1e293b" stroke="#334155" stroke-width="1.4" d="M496.5,-312C496.5,-312 301.5,-312 301.5,-312 295.5,-312 289.5,-306 289.5,-300 289.5,-300 289.5,-274 289.5,-274 289.5,-268 295.5,-262 301.5,-262 301.5,-262 496.5,-262 496.5,-262 502.5,-262 508.5,-268 508.5,-274 508.5,-274 508.5,-300 508.5,-300 508.5,-306 502.5,-312 496.5,-312"/>
<text text-anchor="middle" x="399" y="-290" font-family="Segoe UI, Arial, sans-serif" font-size="10.00" fill="#cbd5e1">cleanSelectorArray()</text>
<text text-anchor="middle" x="399" y="-279" font-family="Segoe UI, Arial, sans-serif" font-size="10.00" fill="#cbd5e1">(Remove generic selectors from custom array)</text>
</g>
<!-- Score_Evict&#45;&gt;Clean_Generic -->
<g id="edge66" class="edge">
<title>Score_Evict&#45;&gt;Clean_Generic</title>
<path fill="none" stroke="#475569" stroke-width="1.1" d="M382.2,-384.8C385.39,-366.42 389.81,-340.94 393.32,-320.74"/>
<polygon fill="#475569" stroke="#475569" stroke-width="1.1" points="396.29,-321.04 394.81,-312.15 390.42,-320.02 396.29,-321.04"/>
</g>
<!-- Cache_Bust -->
<g id="node53" class="node">
<title>Cache_Bust</title>
<path fill="#1e293b" stroke="#334155" stroke-width="1.4" d="M509.5,-189C509.5,-189 324.5,-189 324.5,-189 318.5,-189 312.5,-183 312.5,-177 312.5,-177 312.5,-151 312.5,-151 312.5,-145 318.5,-139 324.5,-139 324.5,-139 509.5,-139 509.5,-139 515.5,-139 521.5,-145 521.5,-151 521.5,-151 521.5,-177 521.5,-177 521.5,-183 515.5,-189 509.5,-189"/>
<text text-anchor="middle" x="417" y="-167" font-family="Segoe UI, Arial, sans-serif" font-size="10.00" fill="#cbd5e1">configCache.invalidate(domain)</text>
<text text-anchor="middle" x="417" y="-156" font-family="Segoe UI, Arial, sans-serif" font-size="10.00" fill="#cbd5e1">(Post&#45;commit cache refresh)</text>
</g>
<!-- Clean_Generic&#45;&gt;Cache_Bust -->
<g id="edge67" class="edge">
<title>Clean_Generic&#45;&gt;Cache_Bust</title>
<path fill="none" stroke="#475569" stroke-width="1.1" d="M402.6,-261.8C405.33,-243.42 409.12,-217.94 412.13,-197.74"/>
<polygon fill="#475569" stroke="#475569" stroke-width="1.1" points="415.1,-198 413.41,-189.15 409.21,-197.12 415.1,-198"/>
</g>
<!-- Active_Track -->
<g id="node54" class="node">
<title>Active_Track</title>
<path fill="#059669" stroke="#334155" stroke-width="1.4" d="M526.5,-66C526.5,-66 341.5,-66 341.5,-66 335.5,-66 329.5,-60 329.5,-54 329.5,-54 329.5,-28 329.5,-28 329.5,-22 335.5,-16 341.5,-16 341.5,-16 526.5,-16 526.5,-16 532.5,-16 538.5,-22 538.5,-28 538.5,-28 538.5,-54 538.5,-54 538.5,-60 532.5,-66 526.5,-66"/>
<text text-anchor="middle" x="434" y="-44" font-family="Segoe UI, Arial, sans-serif" font-size="10.00" fill="#ffffff">Product → Active Monitoring</text>
<text text-anchor="middle" x="434" y="-33" font-family="Segoe UI, Arial, sans-serif" font-size="10.00" fill="#ffffff">(needs_price_review cleared)</text>
</g>
<!-- Cache_Bust&#45;&gt;Active_Track -->
<g id="edge68" class="edge">
<title>Cache_Bust&#45;&gt;Active_Track</title>
<path fill="none" stroke="#475569" stroke-width="1.1" d="M420.4,-138.8C422.98,-120.42 426.56,-94.94 429.4,-74.74"/>
<polygon fill="#475569" stroke="#475569" stroke-width="1.1" points="432.37,-74.98 430.61,-66.15 426.48,-74.16 432.37,-74.98"/>
</g>
<!-- Scheduler -->
<g id="node55" class="node">
<title>Scheduler</title>
<path fill="#059669" stroke="#334155" stroke-width="1.4" d="M1677.5,-4675C1677.5,-4675 1492.5,-4675 1492.5,-4675 1486.5,-4675 1480.5,-4669 1480.5,-4663 1480.5,-4663 1480.5,-4637 1480.5,-4637 1480.5,-4631 1486.5,-4625 1492.5,-4625 1492.5,-4625 1677.5,-4625 1677.5,-4625 1683.5,-4625 1689.5,-4631 1689.5,-4637 1689.5,-4637 1689.5,-4663 1689.5,-4663 1689.5,-4669 1683.5,-4675 1677.5,-4675"/>
<text text-anchor="middle" x="1585" y="-4653" font-family="Segoe UI, Arial, sans-serif" font-size="10.00" fill="#ffffff">Scheduler Cron Job</text>
<text text-anchor="middle" x="1585" y="-4642" font-family="Segoe UI, Arial, sans-serif" font-size="10.00" fill="#ffffff">(Every refresh_interval hours per product)</text>
</g>
<!-- Active_Track&#45;&gt;Scheduler -->
<g id="edge69" class="edge">
<title>Active_Track&#45;&gt;Scheduler</title>
<path fill="none" stroke="#475569" stroke-width="1.1" d="M538.55,-51.19C859.66,-79.43 1810,-163 1810,-163 1810,-4507 1810,-4507 1810,-4507 1810,-4507 1703,-4589 1703,-4589 1703,-4589 1670.83,-4605.36 1640.08,-4620.99"/>
<polygon fill="#475569" stroke="#475569" stroke-width="1.1" points="1638.54,-4618.44 1632.32,-4624.94 1641.24,-4623.74 1638.54,-4618.44"/>
</g>
<!-- Scheduler&#45;&gt;Axios_Fetch -->
<g id="edge70" class="edge">
<title>Scheduler&#45;&gt;Axios_Fetch</title>
<path fill="none" stroke="#10b981" stroke-width="1.6" d="M1480.11,-4632.43C1309.79,-4605.53 974.49,-4552.57 799.05,-4524.86"/>
<polygon fill="#10b981" stroke="#10b981" stroke-width="1.6" points="799.42,-4521.9 790.56,-4523.52 798.5,-4527.78 799.42,-4521.9"/>
<text text-anchor="middle" x="1221" y="-4581.8" font-family="Segoe UI, Arial, sans-serif" font-size="9.00" fill="#94a3b8">Re&#45;scrape loop</text>
</g>
<!-- Notify_Drop -->
<g id="node56" class="node">
<title>Notify_Drop</title>
<path fill="#059669" stroke="#334155" stroke-width="1.4" d="M1421.5,-4531C1421.5,-4531 1236.5,-4531 1236.5,-4531 1230.5,-4531 1224.5,-4525 1224.5,-4519 1224.5,-4519 1224.5,-4493 1224.5,-4493 1224.5,-4487 1230.5,-4481 1236.5,-4481 1236.5,-4481 1421.5,-4481 1421.5,-4481 1427.5,-4481 1433.5,-4487 1433.5,-4493 1433.5,-4493 1433.5,-4519 1433.5,-4519 1433.5,-4525 1427.5,-4531 1421.5,-4531"/>
<text text-anchor="middle" x="1329" y="-4509" font-family="Segoe UI, Arial, sans-serif" font-size="10.00" fill="#ffffff">Price&#45;Drop Notification</text>
<text text-anchor="middle" x="1329" y="-4498" font-family="Segoe UI, Arial, sans-serif" font-size="10.00" fill="#ffffff">(Discord / Telegram / Email)</text>
</g>
<!-- Scheduler&#45;&gt;Notify_Drop -->
<g id="edge71" class="edge">
<title>Scheduler&#45;&gt;Notify_Drop</title>
<path fill="none" stroke="#475569" stroke-width="1.1" d="M1541.57,-4624.91C1496.98,-4600.18 1427.6,-4561.69 1380.32,-4535.47"/>
<polygon fill="#475569" stroke="#475569" stroke-width="1.1" points="1381.52,-4532.73 1372.64,-4531.21 1378.63,-4537.93 1381.52,-4532.73"/>
<text text-anchor="middle" x="1502" y="-4581.8" font-family="Segoe UI, Arial, sans-serif" font-size="9.00" fill="#94a3b8">Price changed</text>
</g>
<!-- Soft_Hard_404 -->
<g id="node57" class="node">
<title>Soft_Hard_404</title>
<path fill="#d97706" stroke="#334155" stroke-width="1.4" d="M1573.33,-4528.21C1573.33,-4528.21 1492.17,-4508.79 1492.17,-4508.79 1486.34,-4507.4 1486.34,-4504.6 1492.17,-4503.21 1492.17,-4503.21 1573.33,-4483.79 1573.33,-4483.79 1579.16,-4482.4 1590.84,-4482.4 1596.67,-4483.79 1596.67,-4483.79 1677.83,-4503.21 1677.83,-4503.21 1683.66,-4504.6 1683.66,-4507.4 1677.83,-4508.79 1677.83,-4508.79 1596.67,-4528.21 1596.67,-4528.21 1590.84,-4529.6 1579.16,-4529.6 1573.33,-4528.21"/>
<text text-anchor="middle" x="1585" y="-4503.5" font-family="Segoe UI, Arial, sans-serif" font-size="10.00" fill="#ffffff">Hard 404 / Soft 404?</text>
</g>
<!-- Scheduler&#45;&gt;Soft_Hard_404 -->
<g id="edge72" class="edge">
<title>Scheduler&#45;&gt;Soft_Hard_404</title>
<path fill="none" stroke="#475569" stroke-width="1.1" d="M1585,-4624.91C1585,-4601.55 1585,-4565.93 1585,-4539.96"/>
<polygon fill="#475569" stroke="#475569" stroke-width="1.1" points="1587.98,-4539.71 1585,-4531.21 1582.03,-4539.71 1587.98,-4539.71"/>
<text text-anchor="middle" x="1612.5" y="-4581.8" font-family="Segoe UI, Arial, sans-serif" font-size="9.00" fill="#94a3b8">Scrape failed</text>
</g>
<!-- Pause_Product -->
<g id="node58" class="node">
<title>Pause_Product</title>
<path fill="#dc2626" stroke="#334155" stroke-width="1.4" d="M1470.5,-4267C1470.5,-4267 1285.5,-4267 1285.5,-4267 1279.5,-4267 1273.5,-4261 1273.5,-4255 1273.5,-4255 1273.5,-4229 1273.5,-4229 1273.5,-4223 1279.5,-4217 1285.5,-4217 1285.5,-4217 1470.5,-4217 1470.5,-4217 1476.5,-4217 1482.5,-4223 1482.5,-4229 1482.5,-4229 1482.5,-4255 1482.5,-4255 1482.5,-4261 1476.5,-4267 1470.5,-4267"/>
<text text-anchor="middle" x="1378" y="-4245" font-family="Segoe UI, Arial, sans-serif" font-size="10.00" fill="#ffffff">checking_paused = true</text>
<text text-anchor="middle" x="1378" y="-4234" font-family="Segoe UI, Arial, sans-serif" font-size="10.00" fill="#ffffff">stock_status = not_available</text>
</g>
<!-- Soft_Hard_404&#45;&gt;Pause_Product -->
<g id="edge73" class="edge">
<title>Soft_Hard_404&#45;&gt;Pause_Product</title>
<path fill="none" stroke="#475569" stroke-width="1.1" d="M1580.3,-4481.83C1569.53,-4428.77 1544,-4303 1544,-4303 1544,-4303 1496.8,-4285.94 1452.74,-4270.01"/>
<polygon fill="#475569" stroke="#475569" stroke-width="1.1" points="1453.57,-4267.15 1444.56,-4267.06 1451.54,-4272.75 1453.57,-4267.15"/>
<text text-anchor="middle" x="1571" y="-4371.8" font-family="Segoe UI, Arial, sans-serif" font-size="9.00" fill="#94a3b8">Yes</text>
</g>
<!-- Transient_Err -->
<g id="node60" class="node">
<title>Transient_Err</title>
<path fill="#d97706" stroke="#334155" stroke-width="1.4" d="M1374.33,-4396.21C1374.33,-4396.21 1293.17,-4376.79 1293.17,-4376.79 1287.34,-4375.4 1287.34,-4372.6 1293.17,-4371.21 1293.17,-4371.21 1374.33,-4351.79 1374.33,-4351.79 1380.16,-4350.4 1391.84,-4350.4 1397.67,-4351.79 1397.67,-4351.79 1478.83,-4371.21 1478.83,-4371.21 1484.66,-4372.6 1484.66,-4375.4 1478.83,-4376.79 1478.83,-4376.79 1397.67,-4396.21 1397.67,-4396.21 1391.84,-4397.6 1380.16,-4397.6 1374.33,-4396.21"/>
<text text-anchor="middle" x="1386" y="-4377" font-family="Segoe UI, Arial, sans-serif" font-size="10.00" fill="#ffffff">Transient Error?</text>
<text text-anchor="middle" x="1386" y="-4366" font-family="Segoe UI, Arial, sans-serif" font-size="10.00" fill="#ffffff">(503 / timeout)</text>
</g>
<!-- Soft_Hard_404&#45;&gt;Transient_Err -->
<g id="edge74" class="edge">
<title>Soft_Hard_404&#45;&gt;Transient_Err</title>
<path fill="none" stroke="#475569" stroke-width="1.1" d="M1557.75,-4487.2C1522.02,-4463.86 1459.33,-4422.91 1420.38,-4397.46"/>
<polygon fill="#475569" stroke="#475569" stroke-width="1.1" points="1421.67,-4394.75 1412.92,-4392.59 1418.41,-4399.73 1421.67,-4394.75"/>
<text text-anchor="middle" x="1497.5" y="-4437.8" font-family="Segoe UI, Arial, sans-serif" font-size="9.00" fill="#94a3b8">No</text>
</g>
<!-- Alert_User -->
<g id="node59" class="node">
<title>Alert_User</title>
<path fill="#dc2626" stroke="#334155" stroke-width="1.4" d="M1470.5,-4123C1470.5,-4123 1285.5,-4123 1285.5,-4123 1279.5,-4123 1273.5,-4117 1273.5,-4111 1273.5,-4111 1273.5,-4085 1273.5,-4085 1273.5,-4079 1279.5,-4073 1285.5,-4073 1285.5,-4073 1470.5,-4073 1470.5,-4073 1476.5,-4073 1482.5,-4079 1482.5,-4085 1482.5,-4085 1482.5,-4111 1482.5,-4111 1482.5,-4117 1476.5,-4123 1470.5,-4123"/>
<text text-anchor="middle" x="1378" y="-4101" font-family="Segoe UI, Arial, sans-serif" font-size="10.00" fill="#ffffff">NotificationService Alert</text>
<text text-anchor="middle" x="1378" y="-4090" font-family="Segoe UI, Arial, sans-serif" font-size="10.00" fill="#ffffff">(Product unavailable)</text>
</g>
<!-- Pause_Product&#45;&gt;Alert_User -->
<g id="edge75" class="edge">
<title>Pause_Product&#45;&gt;Alert_User</title>
<path fill="none" stroke="#475569" stroke-width="1.1" d="M1378,-4216.91C1378,-4193.55 1378,-4157.93 1378,-4131.96"/>
<polygon fill="#475569" stroke="#475569" stroke-width="1.1" points="1380.98,-4131.71 1378,-4123.21 1375.03,-4131.71 1380.98,-4131.71"/>
</g>
<!-- Transient_Err&#45;&gt;Pause_Product -->
<g id="edge77" class="edge">
<title>Transient_Err&#45;&gt;Pause_Product</title>
<path fill="none" stroke="#475569" stroke-width="1.1" d="M1384.53,-4349.16C1383.27,-4328.58 1381.42,-4298.65 1380.02,-4275.81"/>
<polygon fill="#475569" stroke="#475569" stroke-width="1.1" points="1382.98,-4275.43 1379.49,-4267.13 1377.04,-4275.8 1382.98,-4275.43"/>
<text text-anchor="middle" x="1422" y="-4305.8" font-family="Segoe UI, Arial, sans-serif" font-size="9.00" fill="#94a3b8">No (limit exceeded)</text>
</g>
<!-- Backoff -->
<g id="node61" class="node">
<title>Backoff</title>
<path fill="#1e293b" stroke="#334155" stroke-width="1.4" d="M1726.5,-4267C1726.5,-4267 1541.5,-4267 1541.5,-4267 1535.5,-4267 1529.5,-4261 1529.5,-4255 1529.5,-4255 1529.5,-4229 1529.5,-4229 1529.5,-4223 1535.5,-4217 1541.5,-4217 1541.5,-4217 1726.5,-4217 1726.5,-4217 1732.5,-4217 1738.5,-4223 1738.5,-4229 1738.5,-4229 1738.5,-4255 1738.5,-4255 1738.5,-4261 1732.5,-4267 1726.5,-4267"/>
<text text-anchor="middle" x="1634" y="-4245" font-family="Segoe UI, Arial, sans-serif" font-size="10.00" fill="#cbd5e1">Increment failures</text>
<text text-anchor="middle" x="1634" y="-4234" font-family="Segoe UI, Arial, sans-serif" font-size="10.00" fill="#cbd5e1">Backoff → retry next cycle</text>
</g>
<!-- Transient_Err&#45;&gt;Backoff -->
<g id="edge76" class="edge">
<title>Transient_Err&#45;&gt;Backoff</title>
<path fill="none" stroke="#475569" stroke-width="1.1" d="M1417.66,-4356.4C1458.69,-4334.9 1530.83,-4297.08 1580.45,-4271.07"/>
<polygon fill="#475569" stroke="#475569" stroke-width="1.1" points="1582.06,-4273.58 1588.21,-4267 1579.3,-4268.31 1582.06,-4273.58"/>
<text text-anchor="middle" x="1525" y="-4305.8" font-family="Segoe UI, Arial, sans-serif" font-size="9.00" fill="#94a3b8">Yes</text>
</g>
<!-- Backoff&#45;&gt;Scheduler -->
<g id="edge78" class="edge">
<title>Backoff&#45;&gt;Scheduler</title>
<path fill="none" stroke="#475569" stroke-width="1.1" d="M1642.01,-4267.13C1662.09,-4327.64 1713,-4481 1713,-4481 1713,-4481 1713,-4571 1713,-4571 1713,-4571 1668.6,-4598.06 1632.1,-4620.3"/>
<polygon fill="#475569" stroke="#475569" stroke-width="1.1" points="1630.16,-4618 1624.45,-4624.96 1633.26,-4623.08 1630.16,-4618"/>
</g>
</g>
</svg>
